<svg width="262" height="240" viewBox="0 0 262 240" fill="none" xmlns="http://www.w3.org/2000/svg">
<mask id="mask0_1_42" style="mask-type:luminance" maskUnits="userSpaceOnUse" x="0" y="1" width="262" height="238">
<path d="M249.643 1.3584H12.3602C5.80785 1.3584 0.496094 6.67016 0.496094 13.2225V226.777C0.496094 233.33 5.80785 238.641 12.3602 238.641H249.643C256.196 238.641 261.507 233.33 261.507 226.777V13.2225C261.507 6.67016 256.196 1.3584 249.643 1.3584Z" fill="white"/>
</mask>
<g mask="url(#mask0_1_42)">
<path d="M128.015 37.9515C128.018 39.7583 127.849 41.5611 127.508 43.3356C126.992 46.0382 126.067 48.6458 124.763 51.0686C124.461 51.6468 124.148 52.2008 123.787 52.7549C122.215 55.3384 120.225 57.6423 117.896 59.5724C112.839 63.8249 106.438 66.1466 99.8294 66.125C97.6764 66.1201 95.531 65.8737 93.4332 65.3902C88.0646 64.1367 83.1842 61.3299 79.4008 57.32C78.445 56.3281 77.5707 55.2607 76.7868 54.128C73.8888 50.0204 72.1573 45.2045 71.7762 40.1919C71.7159 39.4692 71.6797 38.6983 71.6797 37.9394C71.6797 37.1806 71.6798 36.217 71.7882 35.3618C71.7882 34.7836 71.9206 34.1573 72.005 33.6514C72.158 32.6567 72.3671 31.6715 72.6313 30.7003C74.2163 24.6962 77.7439 19.3854 82.6638 15.5963C87.5837 11.8072 93.6194 9.75299 99.8294 9.75391C101.014 9.75453 102.196 9.83503 103.371 9.99482C105.167 10.2262 106.938 10.6296 108.658 11.1993C113.823 12.8888 118.385 16.0443 121.787 20.2813C121.858 20.3604 121.922 20.4449 121.98 20.5343C123.244 22.1102 124.327 23.8232 125.209 25.6414C126.242 27.7864 127.002 30.0525 127.473 32.3867C127.557 32.7721 127.617 33.1576 127.666 33.5912C127.902 35.0325 128.019 36.4909 128.015 37.9515Z" fill="#F2F9FF"/>
<path d="M118.62 37.9482C118.622 39.1523 118.51 40.3539 118.283 41.5366C117.939 43.3377 117.321 45.0757 116.452 46.6903C116.251 47.0757 116.043 47.4449 115.803 47.8142C114.755 49.5361 113.428 51.0716 111.877 52.3579C108.506 55.1921 104.239 56.7394 99.8354 56.725C98.4003 56.7218 96.9704 56.5575 95.5723 56.2353C91.9943 55.4 88.7415 53.5293 86.2201 50.8567C85.5831 50.1956 85.0004 49.4842 84.4779 48.7294C82.5465 45.9918 81.3925 42.7821 81.1385 39.4413C81.0983 38.9597 81.0742 38.4459 81.0742 37.9402C81.0742 37.4344 81.0742 36.7922 81.1465 36.2222C81.1465 35.8369 81.2348 35.4194 81.2909 35.0823C81.393 34.4194 81.5324 33.7627 81.7084 33.1155C82.7648 29.1138 85.1158 25.5744 88.3948 23.0491C91.6738 20.5238 95.6964 19.1547 99.8354 19.1553C100.624 19.1557 101.413 19.2094 102.195 19.3158C103.393 19.4701 104.573 19.7389 105.719 20.1186C109.162 21.2445 112.202 23.3477 114.47 26.1715C114.516 26.2242 114.56 26.2806 114.598 26.3401C115.441 27.3904 116.162 28.5321 116.75 29.7438C117.439 31.1735 117.945 32.6837 118.258 34.2394C118.315 34.4963 118.355 34.7532 118.387 35.0422C118.544 36.0028 118.622 36.9747 118.62 37.9482Z" fill="#3895FF"/>
<path d="M91.7738 49.427C90.8666 47.2514 89.9916 45.076 89.1166 42.8925C88.3138 40.8373 89.229 38.9989 89.3413 36.9278C89.3078 35.3898 89.3668 33.851 89.5179 32.3199C89.81 30.6392 90.5759 29.0767 91.7255 27.8164C92.44 27.0136 93.3311 26.3794 93.9654 25.5285C94.3446 25.1706 94.6215 24.7179 94.7673 24.2172C94.9132 23.7165 94.923 23.186 94.7954 22.6804C94.6677 22.1747 94.4074 21.7123 94.0414 21.3408C93.6753 20.9694 93.2166 20.7023 92.7129 20.5674C90.0354 21.671 87.649 23.3784 85.7399 25.5563C83.8307 27.7341 82.4505 30.3236 81.707 33.1227C81.7585 33.7868 81.9018 34.4405 82.1325 35.0654C83.1921 37.9072 86.01 40.0667 86.2669 43.0932C86.4274 45.0921 85.4639 46.9544 84.4765 48.7125C84.999 49.4674 85.5817 50.1788 86.2187 50.8398C88.7401 53.5123 91.9929 55.3831 95.5709 56.2185C93.8449 54.332 92.7933 51.8272 91.7738 49.427Z" fill="#92F048"/>
<path d="M118.252 34.2392C117.94 32.6835 117.432 31.1732 116.743 29.7435C116.156 28.5318 115.434 27.3901 114.592 26.3398C114.553 26.2803 114.511 26.2239 114.463 26.1713C112.199 23.3457 109.161 21.2398 105.722 20.1104C105.693 20.1194 105.668 20.1361 105.649 20.1585C104.103 21.1076 102.944 22.576 102.382 24.3008C102.176 25.3378 102.032 26.3858 101.948 27.4396C101.643 29.0451 100.56 29.4546 99.6125 30.5865C98.8819 31.4615 98.3356 32.6897 98.9372 33.7975C99.6204 35.0097 101.41 35.1302 102.631 35.2666C105.414 35.501 108.214 35.4499 110.987 35.1142C113.444 34.8585 115.92 34.8317 118.381 35.0339C118.349 34.7529 118.308 34.5201 118.252 34.2392Z" fill="#92F048"/>
<path d="M115.183 44.8355C114.979 44.282 114.731 43.7453 114.445 43.23C113.537 41.6138 112.183 40.2936 110.543 39.4278C108.905 38.5621 107.051 38.1876 105.205 38.3492C104.476 38.4349 103.772 38.6704 103.139 39.0409C102.505 39.4115 101.955 39.909 101.524 40.5024C101.092 41.0957 100.787 41.772 100.629 42.4887C100.471 43.2054 100.463 43.947 100.604 44.667C100.737 45.424 101.017 46.1473 101.431 46.795C101.844 47.4426 102.382 48.0018 103.013 48.44C104.45 49.4194 106.69 49.4997 107.629 51.1293C108.255 52.205 107.974 53.6018 108.094 54.8462C109.444 54.1823 110.709 53.3574 111.859 52.3897C113.411 51.1033 114.737 49.5677 115.785 47.8459C115.725 46.8194 115.522 45.8061 115.183 44.8355Z" fill="#92F048"/>
<path d="M72.4269 239.151C69.4008 236.326 67.3289 232.629 66.4987 228.573C65.2001 221.891 73.9075 216.515 75.3944 216.697C76.8813 216.879 91.2508 221.34 90.4651 223.009C89.6795 224.677 72.4269 239.151 72.4269 239.151Z" fill="#66B6FF"/>
<path d="M40.6875 238.002L88.4516 224.509L82.2571 187.75C82.2571 187.75 60.5632 186.517 58.1737 189.485C55.7841 192.452 40.6875 238.002 40.6875 238.002Z" fill="#FFC2A0"/>
<path d="M193.37 106.586C192.143 102.404 187.923 101.352 184.17 102.196C184.376 99.8638 183.757 97.533 182.417 95.6122C181.258 94.0457 179.604 92.9174 177.723 92.411C175.125 91.6253 172.969 90.872 170.788 89.1644C167.658 86.7164 164.391 83.3594 160.048 83.8464C157.451 84.1386 155.327 86.2035 155.334 88.7163C152.262 90.067 150.906 94.1707 152.366 97.5341C154.204 101.754 158.21 101.534 162.509 101.735C162.274 104.813 163.71 109.449 165.807 111.981C167.755 114.312 168.943 116.416 169.092 119.494C169.21 121.955 168.885 124.436 169.203 126.896C169.606 130.032 170.729 136.876 174.236 134.324C176.294 132.831 185.722 124.436 187.611 122.806C190.209 120.592 192.118 117.261 191.708 113.981C193.319 111.897 194.195 109.411 193.37 106.586Z" fill="black"/>
<path d="M149.868 117.877C150.251 120.565 151.24 123.132 152.762 125.382C154.283 127.631 156.297 129.505 158.65 130.861C161.004 132.217 163.635 133.02 166.344 133.208C169.054 133.396 171.771 132.965 174.289 131.948C174.914 131.696 175.524 131.405 176.114 131.078C178.54 129.763 180.63 127.904 182.218 125.647C183.805 123.39 184.849 120.796 185.268 118.068C185.686 115.34 185.466 112.552 184.627 109.923C183.788 107.293 182.35 104.895 180.429 102.913C178.507 100.933 176.153 99.4237 173.551 98.5046C170.949 97.5856 168.168 97.2816 165.429 97.6164C162.69 97.9513 160.065 98.916 157.761 100.435C155.456 101.953 153.535 103.985 152.147 106.371C151.788 106.972 151.469 107.597 151.193 108.24C151.19 108.251 151.19 108.262 151.193 108.273C151.193 108.273 151.193 108.338 151.147 108.39C151.031 108.644 150.927 108.897 150.822 109.156C150.599 109.747 150.408 110.349 150.251 110.961C149.675 113.219 149.546 115.568 149.868 117.877Z" fill="#FFC2A0"/>
<path d="M154.19 138.642C160.962 140.538 170.656 135.207 174.318 131.948C177.942 128.701 171.071 116.11 171.071 116.11L155.644 109.988L151.203 108.215C151.2 108.226 151.2 108.237 151.203 108.247C151.163 108.351 151.047 108.67 150.877 109.15L150.267 110.949C148.968 114.922 146.618 122.338 146.118 127.025C145.541 132.129 147.41 136.733 154.19 138.642Z" fill="#FFC2A0"/>
<path d="M154.996 136.59C154.996 136.59 155.086 137.533 155.222 139C155.392 140.74 155.625 143.195 155.872 145.694C156.333 150.557 156.813 155.57 156.813 155.681C156.813 155.792 164.859 160.433 164.859 160.433L181.007 153.999L174.956 125.948L154.996 136.59Z" fill="#FFC2A0"/>
<path d="M161.825 115.903C161.91 115.702 162.019 115.512 162.15 115.338C162.321 115.096 162.561 114.91 162.838 114.805C163.591 114.552 163.974 115.228 163.877 115.883C163.794 116.444 163.553 116.969 163.182 117.397C163.037 117.575 162.853 117.717 162.643 117.812C162.542 117.861 162.43 117.887 162.319 117.887C162.206 117.887 162.095 117.861 161.993 117.812C161.87 117.712 161.773 117.584 161.711 117.437C161.648 117.292 161.623 117.133 161.636 116.975C161.623 116.608 161.687 116.243 161.825 115.903Z" fill="black"/>
<path d="M152.228 113.819C152.313 113.631 152.416 113.452 152.539 113.286C152.701 113.058 152.927 112.881 153.189 112.78C153.902 112.54 154.266 113.183 154.175 113.799C154.099 114.331 153.874 114.832 153.526 115.241C153.389 115.41 153.216 115.545 153.019 115.637C152.919 115.689 152.808 115.716 152.695 115.716C152.583 115.716 152.471 115.689 152.37 115.637C152.253 115.543 152.16 115.422 152.1 115.283C152.041 115.146 152.015 114.995 152.026 114.845C152.023 114.494 152.091 114.144 152.228 113.819Z" fill="black"/>
<path d="M161.62 111.423C161.77 111.727 162.02 111.969 162.328 112.111C163.732 112.884 165.278 113.366 166.873 113.527C167.335 113.621 167.816 113.571 168.249 113.384C169.548 112.643 167.944 111.059 167.204 110.624C166.575 110.276 165.893 110.035 165.184 109.91C164.372 109.706 163.522 109.706 162.71 109.91C162.379 110.004 162.08 110.188 161.847 110.442L161.762 110.553C161.672 110.677 161.612 110.82 161.587 110.97C161.562 111.121 161.573 111.277 161.62 111.423Z" fill="black"/>
<path d="M150.805 109.124C150.811 109.12 150.818 109.118 150.824 109.118C150.831 109.118 150.837 109.12 150.843 109.124C151.903 109.597 153.021 109.925 154.168 110.098C154.626 110.209 155.105 110.177 155.544 110.007C155.573 109.996 155.599 109.98 155.623 109.962C156.837 109.248 155.304 107.663 154.61 107.202C153.989 106.836 153.314 106.573 152.61 106.423C152.448 106.384 152.292 106.345 152.135 106.319C151.777 106.92 151.458 107.545 151.181 108.189C151.179 108.2 151.179 108.211 151.181 108.222C151.045 108.533 150.928 108.832 150.805 109.124Z" fill="black"/>
<path d="M155.392 120.488C155.334 120.487 155.278 120.473 155.226 120.447C155.174 120.421 155.128 120.384 155.094 120.338C154.399 119.41 153.308 117.741 153.885 117.033C154.88 116.111 155.936 115.258 157.048 114.481C157.087 114.452 157.131 114.431 157.179 114.419C157.226 114.407 157.276 114.405 157.324 114.412C157.373 114.419 157.419 114.436 157.461 114.462C157.502 114.486 157.539 114.52 157.567 114.559C157.624 114.64 157.646 114.739 157.631 114.836C157.615 114.933 157.562 115.02 157.483 115.079C156.424 115.819 155.416 116.628 154.464 117.501C154.353 117.747 154.932 118.89 155.691 119.89C155.72 119.929 155.741 119.974 155.753 120.021C155.765 120.068 155.767 120.118 155.76 120.166C155.753 120.215 155.736 120.26 155.711 120.303C155.686 120.344 155.652 120.381 155.613 120.41C155.55 120.46 155.472 120.488 155.392 120.488Z" fill="#D89A77"/>
<path d="M155.223 139C155.392 140.74 155.625 143.195 155.872 145.694C156.266 145.657 156.651 145.558 157.015 145.402C160.501 143.863 166.755 136.961 166.755 136.961C164.94 137.557 163.094 138.047 161.222 138.428C159.241 138.774 157.235 138.966 155.223 139Z" fill="#D89A77"/>
<path d="M163.799 101.625C167.988 102.729 175.74 106.222 175.74 106.222C174.851 108.215 174.198 110.304 173.793 112.449C173.234 115.643 174.273 117.397 174.637 120.417C175.37 126.507 176.078 131.104 176.078 131.104C182.571 127.987 187.902 120.241 186.831 112.656C185.454 102.878 174.779 95.7031 165.007 97.0732C161.864 97.5212 159.125 99.3329 156.773 101.131C159.127 100.926 161.498 101.093 163.799 101.625Z" fill="black"/>
<path d="M151.008 121.747L159.872 123.695C159.872 123.695 157.17 126.454 154.191 125.351C151.21 124.246 151.008 121.747 151.008 121.747Z" fill="white"/>
<path d="M139.582 154.057L156.853 149.512L178.372 147.038L202.124 153.771C202.124 153.771 184.93 170.219 170.307 169.232C155.685 168.244 139.582 154.057 139.582 154.057Z" fill="#FFC2A0"/>
<path d="M146.314 152.291C146.314 152.291 152.249 157.2 165.618 158.933C178.988 160.667 193.111 151.174 193.111 151.174L209.734 155.148L215.857 173.069L203.052 248.053H104.355L108.809 199.626L103.238 160.018C103.238 160.018 115.484 156.96 126.614 154.921C133.131 153.706 139.707 152.829 146.314 152.291Z" fill="#CCE7FF"/>
<path d="M195.809 225.73L191.855 248.053H233.171L236.138 223.009L195.809 225.73Z" fill="#FFC2A0"/>
<path d="M209.731 155.175C209.731 155.175 228.451 158.928 237.107 175.752C245.762 192.576 247.268 228.574 247.268 228.574L193.336 226.1L209.731 155.175Z" fill="#CCE7FF"/>
<path d="M124.937 189.608L119.554 228.385L105.918 231.508L105.126 231.69L72.4264 239.157C72.4264 239.157 77.0626 231.735 73.725 204.094C71.6082 186.563 64.8164 169.251 64.8164 169.251L103.224 160.024L124.937 189.608Z" fill="#CCE7FF"/>
<path d="M104.381 97.5789C104.381 97.5789 104.517 77.5344 104.27 71.2229C104.147 68.0997 103.881 63.7557 101.27 61.5871C99.6409 60.2299 97.1604 60.3922 96.2579 62.4766C95.0761 65.2298 94.8812 68.3205 94.7059 71.2424C94.2254 79.0992 94.5825 86.9949 94.3487 94.8647C94.3487 95.1894 94.3488 95.5141 94.3164 95.8388C94.3164 95.8388 97.7123 99.0854 98.459 98.9295C99.2059 98.7737 104.381 97.5789 104.381 97.5789Z" fill="#FFC2A0"/>
<path d="M95.4264 91.3524C95.4264 91.3524 93.1083 86.4371 88.0955 86.2553C83.0828 86.0735 81.0438 90.5214 81.0438 90.5214C81.0438 90.5214 77.2779 89.872 74.778 91.6382C71.1028 94.2354 71.291 98.7807 71.291 98.7807C71.291 98.7807 66.9861 99.7612 65.5511 103.787C62.7785 111.579 68.7067 133.623 68.7067 133.623L89.9525 144.909H102.01C102.01 144.909 113.172 123.305 114.634 113.495C116.483 101.027 108.919 96.6444 103.906 95.9951C98.8937 95.3458 95.4264 91.3524 95.4264 91.3524Z" fill="#FFC2A0"/>
<path d="M78.5503 123.032C67.1288 135.434 56.1487 148.291 45.6168 161.453C32.2277 178.199 15.0141 196.73 14.3518 219.49C14.1561 224.782 15.776 229.983 18.9426 234.229C20.4879 236.177 22.6631 238.124 25.0851 238.807C28.507 239.8 32.3511 239.456 35.8184 238.969C39.6105 238.41 43.0389 237.618 46.3634 235.664C49.3222 233.875 52.0022 231.66 54.3176 229.093C59.0512 223.982 62.7004 217.944 66.0444 211.866C74.2129 197.023 102.01 144.882 102.01 144.882L78.5503 123.032Z" fill="#FFC2A0"/>
<path d="M73.4084 198.718C73.3465 198.718 73.2856 198.733 73.2312 198.762C73.1768 198.792 73.1304 198.834 73.0968 198.887L58.0521 224.119C58.0331 224.196 58.0221 224.274 58.0195 224.353C58.0304 224.436 58.072 224.512 58.1364 224.567C58.1752 224.6 58.2205 224.625 58.2696 224.639C58.3185 224.653 58.37 224.657 58.4204 224.649C58.4709 224.642 58.5191 224.624 58.562 224.596C58.6049 224.569 58.6413 224.532 58.6689 224.49C58.6689 224.49 58.8572 224.177 58.8702 224.146L59.1169 223.736L59.448 223.191C59.5779 222.963 59.7143 222.736 59.8507 222.541L60.3246 221.749L60.8637 220.846C61.0584 220.515 61.2532 220.197 61.4545 219.853C61.6558 219.509 61.883 219.139 62.1038 218.782L62.7857 217.639L63.4998 216.444L64.2401 215.204L64.9997 213.905L65.7659 212.607C66.0257 212.172 66.2855 211.743 66.5387 211.308L67.3113 210.009L68.071 208.71L68.8114 207.464L69.532 206.262L70.1814 205.114L70.8306 204.029L71.4281 203.029L71.9735 202.114C72.1358 201.847 72.2916 201.575 72.454 201.302C72.6163 201.029 72.7333 200.841 72.8696 200.607L73.2072 200.043L73.467 199.614C73.5189 199.523 73.5773 199.432 73.6293 199.335C73.6538 199.298 73.6736 199.259 73.6877 199.218C73.7078 199.167 73.7163 199.112 73.7126 199.057C73.709 199.003 73.6933 198.949 73.6665 198.902C73.6398 198.854 73.6027 198.813 73.5581 198.781C73.5134 198.748 73.4624 198.728 73.4084 198.718Z" fill="#D89A77"/>
<path d="M109.525 186.653L105.888 231.508L105.129 231.69L108.778 186.607C108.795 186.516 108.845 186.434 108.92 186.378C108.993 186.322 109.086 186.294 109.178 186.301C109.27 186.309 109.357 186.349 109.422 186.418C109.485 186.485 109.523 186.573 109.525 186.666V186.653Z" fill="#66B6FF"/>
<path d="M195.676 225.912H195.611C195.564 225.904 195.517 225.886 195.476 225.86C195.434 225.835 195.397 225.801 195.37 225.761C195.341 225.721 195.32 225.676 195.309 225.628C195.3 225.581 195.298 225.531 195.306 225.483L200.157 196.225C200.164 196.176 200.181 196.13 200.206 196.087C200.232 196.046 200.266 196.009 200.305 195.98C200.346 195.952 200.391 195.932 200.439 195.921C200.487 195.911 200.537 195.91 200.585 195.919C200.681 195.935 200.767 195.988 200.824 196.067C200.882 196.147 200.905 196.245 200.891 196.341L196.033 225.6C196.018 225.685 195.975 225.762 195.911 225.819C195.845 225.876 195.762 225.909 195.676 225.912Z" fill="#66B6FF"/>
<path d="M80.3814 118.326C80.163 118.325 79.9453 118.301 79.732 118.254C75.0244 117.287 73.6349 110.014 73.5765 109.709C73.5593 109.611 73.581 109.512 73.6369 109.43C73.6927 109.349 73.7784 109.293 73.8753 109.274C73.9235 109.264 73.973 109.265 74.0211 109.275C74.0692 109.285 74.1147 109.304 74.1552 109.333C74.1957 109.36 74.2304 109.396 74.257 109.436C74.2836 109.478 74.3017 109.524 74.3103 109.573C74.3103 109.644 75.6609 116.664 79.8815 117.527C80.1957 117.601 80.5223 117.606 80.8386 117.542C81.155 117.476 81.4532 117.343 81.7124 117.15C82.7773 116.371 83.2903 114.735 83.4073 113.572C83.4929 111.934 83.3575 110.292 83.0046 108.69L82.8683 107.891C82.5519 105.519 81.9705 103.191 81.1346 100.95C79.8036 97.807 75.7452 98.4498 72.0441 99.294C71.9968 99.3054 71.9475 99.3072 71.8994 99.2993C71.8513 99.2914 71.8054 99.2739 71.7642 99.2478C71.723 99.2218 71.6875 99.1878 71.6597 99.1476C71.6319 99.1076 71.6126 99.0624 71.6027 99.0148C71.5813 98.9192 71.5986 98.819 71.651 98.7363C71.7033 98.6535 71.7864 98.5949 71.8818 98.5732C74.7648 97.9239 80.1347 96.6837 81.8164 100.664C82.6778 102.957 83.2767 105.34 83.6021 107.768L83.7384 108.559C84.1025 110.228 84.2379 111.939 84.1409 113.644C84.0046 115.02 83.4073 116.826 82.1476 117.747C81.6409 118.134 81.0184 118.338 80.3814 118.326Z" fill="#D89A77"/>
<path d="M92.0509 109.079C91.8091 109.138 91.5593 109.16 91.3106 109.143C91.3626 109.637 91.4211 110.131 91.4795 110.612C91.7782 112.916 91.4016 114.721 90.3756 115.974C89.9983 116.375 89.5404 116.69 89.0323 116.901C88.5242 117.111 87.9774 117.211 87.4277 117.195C86.6832 117.231 85.9395 117.11 85.2442 116.841C84.5488 116.573 83.9169 116.163 83.3889 115.637C83.3545 115.602 83.3136 115.575 83.2685 115.556C83.2233 115.537 83.1749 115.527 83.1259 115.527C83.077 115.527 83.0286 115.537 82.9835 115.556C82.9383 115.575 82.8974 115.602 82.863 115.637C82.8285 115.671 82.8011 115.711 82.7823 115.756C82.7635 115.8 82.7539 115.849 82.7539 115.897C82.7539 115.944 82.7635 115.993 82.7823 116.037C82.8011 116.082 82.8285 116.122 82.863 116.156C83.4412 116.742 84.1325 117.204 84.895 117.515C85.6574 117.825 86.4749 117.977 87.2979 117.961H87.4602C88.1184 117.977 88.7724 117.853 89.3783 117.595C89.9841 117.338 90.5278 116.953 90.973 116.468C92.1353 115.053 92.5573 113.06 92.2391 110.546C92.1417 110.046 92.1029 109.56 92.0509 109.079Z" fill="#D89A77"/>
<path d="M89.2313 96.8392C89.6844 98.001 90.0258 99.2033 90.2507 100.43C90.4671 100.305 90.7013 100.212 90.9454 100.157C90.7184 98.9304 90.3749 97.7281 89.9196 96.5665C87.3872 90.3005 82.0627 90.333 82.0043 90.3395C81.9551 90.3403 81.9066 90.351 81.8616 90.3707C81.8166 90.3905 81.7761 90.4191 81.7422 90.4548C81.7083 90.4904 81.6819 90.5325 81.6645 90.5785C81.6471 90.6244 81.639 90.6735 81.6407 90.7226C81.6487 90.8197 81.6921 90.9105 81.7628 90.9776C81.8335 91.0446 81.9263 91.0833 82.0237 91.0861C82.0237 91.0861 86.8872 91.0408 89.2313 96.8392Z" fill="#D89A77"/>
<path d="M91.1859 109.352C90.1399 109.368 89.0968 109.234 88.0886 108.955C87.4652 108.791 86.9022 108.451 86.4669 107.975C86.0316 107.5 85.7426 106.909 85.6342 106.274C85.4868 105.416 85.5676 104.534 85.8685 103.716C86.1693 102.9 86.6797 102.176 87.3484 101.618C90.16 99.3647 102.964 96.0596 103.503 95.9167C103.6 95.8949 103.701 95.911 103.786 95.9618C103.87 96.0126 103.932 96.0942 103.958 96.1895C103.982 96.2842 103.967 96.3844 103.917 96.4683C103.867 96.5523 103.786 96.6131 103.692 96.6375C103.562 96.67 90.5041 100.046 87.8095 102.196C87.2493 102.671 86.8215 103.283 86.5677 103.972C86.314 104.662 86.243 105.406 86.3614 106.131C86.4415 106.636 86.669 107.106 87.0156 107.483C87.3621 107.86 87.8123 108.126 88.3094 108.247C90.4912 108.897 93.2117 108.559 95.8155 108.156C97.3998 107.916 102.309 107.053 102.367 107.046C102.465 107.03 102.564 107.053 102.645 107.11C102.725 107.167 102.779 107.254 102.796 107.352C102.812 107.448 102.789 107.548 102.732 107.628C102.675 107.71 102.588 107.764 102.491 107.78C102.445 107.78 97.5233 108.644 95.9325 108.89C94.3643 109.164 92.7775 109.318 91.1859 109.352Z" fill="#D89A77"/>
<path d="M95.0618 127.799C94.9741 127.799 94.8894 127.768 94.8227 127.71C94.7562 127.653 94.712 127.574 94.6981 127.488C94.2841 124.245 94.3871 120.958 95.0033 117.748C96.0033 112.105 100.808 107.508 101.01 107.313C101.044 107.279 101.087 107.254 101.132 107.236C101.178 107.218 101.226 107.21 101.275 107.211C101.324 107.212 101.373 107.223 101.417 107.243C101.462 107.262 101.502 107.291 101.536 107.327C101.569 107.361 101.595 107.404 101.613 107.449C101.631 107.495 101.639 107.543 101.638 107.592C101.637 107.641 101.626 107.689 101.606 107.734C101.586 107.779 101.558 107.818 101.523 107.853C101.471 107.898 96.6916 112.482 95.7371 117.878C95.1463 121.003 95.0411 124.2 95.4254 127.358C95.4425 127.454 95.4206 127.553 95.3646 127.634C95.3086 127.714 95.2231 127.769 95.1268 127.786L95.0618 127.799Z" fill="#D89A77"/>
<path d="M98.0513 98.1309C97.9542 98.1309 97.861 98.0929 97.7918 98.0249C97.7226 97.9568 97.6828 97.8644 97.6811 97.7673C97.6156 97.0297 97.4291 96.308 97.1292 95.6311L96.9928 95.2545C96.364 93.4739 95.4686 91.7989 94.337 90.2872C94.2776 90.2089 94.2518 90.1101 94.2652 90.0126C94.2786 89.9152 94.3301 89.8271 94.4085 89.7677C94.4868 89.7083 94.5857 89.6825 94.6831 89.6958C94.7805 89.7092 94.8686 89.7608 94.928 89.8391C96.1049 91.4106 97.0375 93.151 97.6941 95.0012L97.8239 95.3713C98.153 96.1251 98.3548 96.9281 98.4213 97.7478C98.423 97.797 98.4149 97.846 98.3975 97.892C98.38 97.9379 98.3536 97.9801 98.3198 98.0157C98.2859 98.0513 98.2455 98.0799 98.2004 98.0997C98.1554 98.1195 98.107 98.1301 98.0577 98.1309H98.0513Z" fill="#D89A77"/>
<path d="M94.9122 117.617C94.1391 117.627 93.3729 117.469 92.6667 117.153C91.9605 116.839 91.331 116.374 90.8214 115.793C90.7904 115.755 90.7672 115.712 90.7533 115.664C90.7394 115.618 90.7351 115.568 90.7406 115.52C90.7461 115.472 90.7612 115.425 90.7852 115.383C90.8091 115.34 90.8413 115.302 90.88 115.273C90.9573 115.214 91.0547 115.187 91.1516 115.198C91.2484 115.209 91.3372 115.256 91.3994 115.331C91.9034 115.895 92.5367 116.327 93.2449 116.59C93.953 116.854 94.7148 116.941 95.4642 116.845C95.5604 116.84 95.6546 116.872 95.729 116.933C95.8033 116.994 95.8523 117.08 95.8667 117.176C95.873 117.224 95.8693 117.274 95.8559 117.321C95.8425 117.369 95.8197 117.412 95.7887 117.451C95.7577 117.489 95.7194 117.521 95.6759 117.544C95.6324 117.567 95.5846 117.58 95.5356 117.584C95.3213 117.604 95.1135 117.617 94.9122 117.617Z" fill="#D89A77"/>
<path d="M183.248 102.352C182.913 102.447 182.597 102.598 182.313 102.8L180.78 103.63L177.397 105.461C177.185 105.619 176.95 105.745 176.702 105.838C176.618 105.861 176.544 105.912 176.494 105.983C176.443 106.056 176.419 106.143 176.427 106.23C176.435 106.317 176.474 106.399 176.536 106.46C176.598 106.521 176.68 106.559 176.767 106.566C177.068 106.506 177.352 106.382 177.599 106.202L178.313 105.812L180.144 104.819L183.17 103.183L183.325 103.098V103.059C183.325 103.118 183.56 102.917 183.572 102.884C183.595 102.834 183.606 102.78 183.606 102.725C183.606 102.67 183.595 102.616 183.572 102.566C183.553 102.497 183.509 102.438 183.45 102.398C183.391 102.359 183.318 102.343 183.248 102.352Z" fill="#1B1D29"/>
<path d="M179.857 123.671C181.002 119.825 179.696 116.042 176.94 115.222C174.183 114.401 171.021 116.853 169.876 120.699C168.731 124.545 170.037 128.329 172.793 129.149C175.55 129.97 178.713 127.517 179.857 123.671Z" fill="#FFC2A0"/>
<path d="M199.504 185.721C198.532 186.782 198.134 188.254 196.882 189.09C196.116 189.589 195.252 189.92 194.349 190.062C194.143 190.096 193.949 190.18 193.784 190.307C193.619 190.433 193.488 190.599 193.402 190.788C193.316 190.978 193.278 191.186 193.292 191.393C193.305 191.601 193.369 191.802 193.479 191.979C193.615 192.194 193.812 192.364 194.044 192.468C194.278 192.572 194.536 192.605 194.787 192.561C196.466 192.315 198.031 191.568 199.278 190.418C200.278 189.439 200.688 188.042 201.729 187.112C202.334 186.563 203.066 186.172 203.858 185.975C204.057 185.931 204.241 185.84 204.399 185.711C204.555 185.582 204.678 185.417 204.759 185.23C204.839 185.043 204.874 184.841 204.86 184.638C204.847 184.435 204.784 184.238 204.679 184.064C204.54 183.837 204.333 183.66 204.087 183.556C203.842 183.453 203.57 183.43 203.31 183.489C201.843 183.826 200.515 184.605 199.504 185.721Z" fill="white"/>
<path d="M227.183 184.551C226.212 185.611 225.814 187.084 224.561 187.919C223.795 188.418 222.932 188.749 222.028 188.891C221.823 188.925 221.629 189.009 221.464 189.136C221.299 189.263 221.167 189.428 221.081 189.618C220.995 189.807 220.958 190.015 220.972 190.223C220.984 190.43 221.049 190.631 221.158 190.808C221.295 191.023 221.492 191.194 221.724 191.297C221.957 191.401 222.215 191.434 222.466 191.39C224.145 191.144 225.71 190.398 226.958 189.247C227.958 188.268 228.368 186.871 229.409 185.941C230.014 185.392 230.746 185.001 231.538 184.804C231.736 184.76 231.921 184.67 232.078 184.541C232.235 184.411 232.358 184.246 232.438 184.059C232.519 183.872 232.554 183.67 232.54 183.467C232.526 183.264 232.464 183.068 232.359 182.894C232.22 182.666 232.013 182.489 231.768 182.385C231.522 182.283 231.25 182.259 230.99 182.318C229.523 182.655 228.195 183.434 227.183 184.551Z" fill="white"/>
<path d="M161.441 185.721C160.469 186.782 160.072 188.254 158.819 189.09C158.053 189.589 157.189 189.92 156.286 190.062C156.081 190.096 155.887 190.18 155.722 190.307C155.557 190.433 155.425 190.599 155.339 190.788C155.253 190.978 155.216 191.186 155.229 191.393C155.242 191.601 155.306 191.802 155.416 191.979C155.553 192.194 155.749 192.364 155.982 192.468C156.215 192.572 156.473 192.605 156.724 192.561C158.403 192.315 159.968 191.568 161.215 190.418C162.215 189.439 162.626 188.042 163.667 187.112C164.272 186.563 165.003 186.172 165.795 185.975C165.993 185.929 166.177 185.838 166.333 185.709C166.488 185.579 166.612 185.414 166.692 185.228C166.772 185.042 166.807 184.84 166.794 184.638C166.781 184.435 166.721 184.238 166.617 184.064C166.478 183.837 166.271 183.66 166.025 183.556C165.78 183.453 165.508 183.43 165.248 183.489C163.78 183.826 162.452 184.605 161.441 185.721Z" fill="white"/>
<path d="M123.375 185.721C122.403 186.782 122.006 188.254 120.753 189.09C119.987 189.589 119.124 189.92 118.22 190.062C118.014 190.096 117.82 190.18 117.655 190.307C117.49 190.433 117.359 190.599 117.273 190.788C117.187 190.978 117.149 191.186 117.163 191.393C117.176 191.601 117.24 191.802 117.35 191.979C117.486 192.194 117.683 192.364 117.915 192.468C118.149 192.572 118.407 192.605 118.658 192.561C120.337 192.315 121.902 191.568 123.149 190.418C124.149 189.439 124.559 188.042 125.6 187.112C126.205 186.563 126.937 186.172 127.729 185.975C127.927 185.929 128.111 185.838 128.267 185.709C128.422 185.579 128.546 185.414 128.626 185.228C128.706 185.042 128.74 184.84 128.728 184.638C128.715 184.435 128.654 184.238 128.551 184.064C128.411 183.837 128.205 183.66 127.959 183.556C127.713 183.453 127.441 183.43 127.181 183.489C125.714 183.826 124.385 184.605 123.375 185.721Z" fill="white"/>
<path d="M91.7344 185.54C90.7623 186.601 90.3652 188.073 89.1124 188.908C88.3459 189.408 87.4827 189.739 86.5792 189.88C86.3739 189.915 86.1799 189.999 86.0149 190.125C85.8498 190.252 85.7186 190.417 85.6326 190.607C85.5467 190.797 85.5087 191.004 85.5222 191.212C85.5356 191.419 85.6 191.62 85.7097 191.797C85.8456 192.013 86.0423 192.184 86.2752 192.287C86.508 192.39 86.7662 192.423 87.0173 192.379C88.6959 192.133 90.2613 191.387 91.5086 190.236C92.5082 189.257 92.9189 187.86 93.9596 186.93C94.5648 186.381 95.2964 185.991 96.0889 185.793C96.2864 185.748 96.4705 185.656 96.6262 185.527C96.7819 185.397 96.9049 185.233 96.9849 185.046C97.065 184.861 97.1 184.658 97.087 184.456C97.0741 184.254 97.0136 184.058 96.9104 183.883C96.7711 183.655 96.564 183.478 96.3184 183.375C96.0728 183.272 95.8009 183.248 95.5412 183.307C94.0739 183.644 92.7452 184.424 91.7344 185.54Z" fill="white"/>
<path d="M149.014 168.399C147.892 167.495 146.399 167.153 145.495 165.976C144.95 165.24 144.568 164.398 144.372 163.504C144.326 163.301 144.23 163.113 144.093 162.956C143.958 162.8 143.785 162.678 143.591 162.603C143.397 162.528 143.189 162.502 142.982 162.526C142.775 162.551 142.579 162.626 142.408 162.744C142.193 162.893 142.029 163.104 141.938 163.349C141.848 163.594 141.835 163.861 141.9 164.113C142.245 165.773 143.083 167.291 144.304 168.467C145.338 169.405 146.755 169.741 147.727 170.72C148.301 171.296 148.731 172 148.98 172.774C149.038 172.968 149.141 173.146 149.281 173.292C149.42 173.438 149.593 173.549 149.784 173.616C149.975 173.683 150.18 173.703 150.38 173.676C150.581 173.649 150.772 173.574 150.938 173.458C151.149 173.308 151.31 173.095 151.398 172.851C151.487 172.606 151.497 172.341 151.431 172.09C151.021 170.641 150.178 169.354 149.014 168.399Z" fill="white"/>
<path d="M218.237 169.384C217.114 168.48 215.622 168.137 214.719 166.959C214.174 166.225 213.791 165.381 213.595 164.488C213.549 164.286 213.453 164.098 213.317 163.941C213.18 163.784 213.008 163.663 212.814 163.588C212.621 163.513 212.411 163.486 212.205 163.511C211.999 163.536 211.801 163.61 211.63 163.728C211.415 163.877 211.252 164.088 211.161 164.332C211.07 164.578 211.057 164.845 211.124 165.098C211.469 166.758 212.306 168.275 213.527 169.452C214.56 170.39 215.978 170.725 216.95 171.704C217.524 172.28 217.953 172.984 218.203 173.759C218.261 173.952 218.364 174.129 218.504 174.276C218.644 174.423 218.816 174.534 219.007 174.601C219.198 174.667 219.403 174.688 219.603 174.66C219.803 174.633 219.995 174.558 220.161 174.443C220.373 174.291 220.533 174.08 220.621 173.835C220.709 173.59 220.721 173.325 220.655 173.073C220.243 171.626 219.4 170.338 218.237 169.384Z" fill="white"/>
<path d="M184.163 168.4C183.048 167.497 181.555 167.153 180.651 165.976C180.107 165.241 179.724 164.398 179.528 163.504C179.482 163.299 179.385 163.108 179.246 162.95C179.107 162.79 178.931 162.669 178.733 162.595C178.536 162.521 178.323 162.497 178.115 162.525C177.905 162.554 177.706 162.634 177.536 162.759C177.322 162.907 177.158 163.119 177.068 163.363C176.977 163.608 176.964 163.875 177.03 164.127C177.372 165.789 178.209 167.307 179.432 168.482C180.467 169.42 181.883 169.756 182.856 170.734C183.431 171.31 183.86 172.014 184.109 172.788C184.167 172.982 184.27 173.158 184.409 173.303C184.549 173.449 184.721 173.559 184.911 173.626C185.101 173.693 185.304 173.714 185.504 173.688C185.704 173.661 185.894 173.587 186.061 173.473C186.273 173.323 186.434 173.111 186.524 172.866C186.613 172.622 186.626 172.356 186.56 172.104C186.156 170.654 185.321 169.362 184.163 168.4Z" fill="white"/>
<path d="M112.008 168.4C110.892 167.497 109.4 167.153 108.496 165.976C107.951 165.241 107.568 164.398 107.373 163.504C107.325 163.299 107.228 163.108 107.09 162.95C106.952 162.79 106.775 162.669 106.578 162.595C106.38 162.521 106.168 162.497 105.958 162.525C105.749 162.554 105.551 162.634 105.381 162.759C105.166 162.907 105.002 163.119 104.911 163.363C104.821 163.608 104.807 163.875 104.873 164.127C105.215 165.789 106.054 167.307 107.277 168.482C108.311 169.42 109.728 169.756 110.7 170.734C111.274 171.31 111.704 172.014 111.953 172.788C112.012 172.982 112.114 173.158 112.254 173.303C112.393 173.449 112.564 173.559 112.754 173.626C112.945 173.693 113.148 173.714 113.347 173.688C113.547 173.661 113.738 173.587 113.904 173.473C114.117 173.323 114.279 173.111 114.368 172.866C114.458 172.622 114.47 172.356 114.404 172.104C114.001 170.654 113.164 169.362 112.008 168.4Z" fill="white"/>
<path d="M188.629 224.28C187.657 225.341 187.259 226.813 186.007 227.648C185.241 228.148 184.377 228.479 183.474 228.62C183.268 228.655 183.074 228.739 182.909 228.866C182.744 228.992 182.613 229.157 182.527 229.347C182.441 229.537 182.403 229.744 182.417 229.952C182.43 230.16 182.494 230.36 182.604 230.537C182.74 230.753 182.937 230.923 183.169 231.027C183.403 231.131 183.661 231.163 183.912 231.12C185.591 230.874 187.156 230.127 188.403 228.976C189.403 227.997 189.813 226.6 190.854 225.67C191.459 225.121 192.191 224.731 192.983 224.533C193.182 224.49 193.366 224.399 193.524 224.269C193.68 224.141 193.803 223.976 193.884 223.789C193.964 223.602 193.999 223.399 193.985 223.196C193.972 222.994 193.909 222.797 193.804 222.623C193.665 222.396 193.458 222.219 193.212 222.115C192.967 222.012 192.695 221.988 192.435 222.048C190.968 222.385 189.64 223.164 188.629 224.28Z" fill="white"/>
<path d="M150.562 224.28C149.59 225.341 149.193 226.813 147.94 227.648C147.174 228.148 146.31 228.479 145.407 228.62C145.202 228.655 145.008 228.739 144.843 228.866C144.678 228.992 144.546 229.157 144.46 229.347C144.374 229.537 144.337 229.744 144.35 229.952C144.363 230.16 144.428 230.36 144.537 230.537C144.674 230.753 144.871 230.923 145.103 231.027C145.336 231.131 145.594 231.163 145.845 231.12C147.524 230.874 149.089 230.127 150.336 228.976C151.336 227.997 151.747 226.6 152.788 225.67C153.393 225.121 154.125 224.731 154.916 224.533C155.114 224.488 155.298 224.397 155.454 224.267C155.61 224.138 155.733 223.973 155.813 223.787C155.893 223.601 155.928 223.398 155.915 223.196C155.902 222.994 155.842 222.797 155.738 222.623C155.599 222.396 155.392 222.219 155.146 222.115C154.901 222.012 154.629 221.988 154.369 222.048C152.902 222.385 151.573 223.164 150.562 224.28Z" fill="white"/>
<path d="M113.488 224.098C112.516 225.159 112.119 226.631 110.866 227.467C110.1 227.966 109.237 228.297 108.333 228.439C108.127 228.473 107.934 228.557 107.769 228.684C107.603 228.81 107.472 228.976 107.386 229.165C107.3 229.355 107.262 229.563 107.276 229.77C107.289 229.978 107.353 230.179 107.463 230.356C107.6 230.571 107.796 230.742 108.029 230.845C108.262 230.949 108.52 230.982 108.771 230.938C110.45 230.692 112.015 229.945 113.263 228.795C114.262 227.816 114.673 226.419 115.714 225.488C116.319 224.94 117.05 224.549 117.842 224.351C118.04 224.307 118.224 224.215 118.38 224.086C118.535 223.956 118.659 223.792 118.739 223.605C118.819 223.419 118.854 223.216 118.841 223.015C118.828 222.812 118.768 222.616 118.664 222.441C118.524 222.214 118.318 222.037 118.073 221.933C117.826 221.83 117.555 221.807 117.295 221.866C115.827 222.203 114.499 222.982 113.488 224.098Z" fill="white"/>
<path d="M138.139 206.957C137.017 206.054 135.524 205.712 134.62 204.534C134.075 203.799 133.693 202.956 133.497 202.063C133.451 201.86 133.355 201.672 133.218 201.515C133.083 201.359 132.91 201.237 132.716 201.162C132.522 201.087 132.314 201.061 132.107 201.085C131.9 201.109 131.704 201.185 131.533 201.302C131.318 201.452 131.154 201.662 131.063 201.907C130.973 202.152 130.96 202.419 131.025 202.672C131.37 204.332 132.208 205.849 133.429 207.026C134.463 207.964 135.88 208.299 136.852 209.279C137.426 209.854 137.856 210.558 138.105 211.332C138.163 211.526 138.266 211.704 138.406 211.85C138.545 211.997 138.718 212.107 138.909 212.175C139.1 212.242 139.305 212.262 139.505 212.235C139.706 212.207 139.897 212.132 140.063 212.017C140.274 211.866 140.435 211.654 140.523 211.409C140.612 211.164 140.622 210.899 140.556 210.648C140.146 209.2 139.303 207.913 138.139 206.957Z" fill="white"/>
<path d="M93.6629 206.953C92.5401 206.049 91.0474 205.706 90.1438 204.529C89.5991 203.794 89.2165 202.951 89.021 202.057C88.9741 201.855 88.8784 201.668 88.7422 201.51C88.606 201.353 88.4335 201.233 88.2397 201.157C88.0459 201.082 87.8368 201.056 87.6304 201.08C87.4241 201.105 87.2269 201.179 87.0559 201.298C86.8413 201.446 86.6776 201.658 86.5869 201.902C86.4963 202.147 86.4832 202.414 86.5493 202.667C86.8941 204.327 87.7316 205.845 88.9524 207.021C89.9863 207.959 91.4034 208.295 92.3757 209.273C92.95 209.849 93.3795 210.554 93.6287 211.328C93.6865 211.522 93.7895 211.699 93.9293 211.845C94.0691 211.992 94.2417 212.103 94.4328 212.17C94.6239 212.236 94.8281 212.257 95.0287 212.23C95.2292 212.202 95.4205 212.128 95.5866 212.012C95.7981 211.861 95.9586 211.649 96.0467 211.404C96.1347 211.16 96.1463 210.894 96.0797 210.643C95.6692 209.195 94.8259 207.907 93.6629 206.953Z" fill="white"/>
<path d="M173.284 206.959C172.169 206.055 170.676 205.712 169.773 204.535C169.228 203.8 168.845 202.957 168.649 202.063C168.603 201.857 168.506 201.666 168.367 201.508C168.228 201.349 168.052 201.227 167.855 201.153C167.657 201.079 167.444 201.055 167.236 201.084C167.026 201.113 166.827 201.193 166.657 201.317C166.443 201.466 166.279 201.677 166.189 201.921C166.098 202.167 166.085 202.434 166.151 202.686C166.493 204.348 167.331 205.865 168.554 207.041C169.588 207.978 171.004 208.314 171.977 209.293C172.552 209.868 172.981 210.572 173.23 211.347C173.288 211.54 173.391 211.716 173.531 211.862C173.67 212.008 173.842 212.118 174.032 212.185C174.222 212.251 174.425 212.273 174.625 212.246C174.825 212.22 175.016 212.145 175.182 212.032C175.394 211.881 175.555 211.67 175.645 211.425C175.734 211.18 175.747 210.915 175.681 210.662C175.278 209.213 174.442 207.921 173.284 206.959Z" fill="white"/>
<path d="M217.27 206.959C216.154 206.055 214.661 205.712 213.757 204.535C213.212 203.8 212.83 202.957 212.635 202.063C212.587 201.857 212.49 201.666 212.352 201.508C212.213 201.349 212.037 201.227 211.839 201.153C211.642 201.079 211.429 201.055 211.22 201.084C211.011 201.113 210.813 201.193 210.642 201.317C210.427 201.466 210.264 201.677 210.173 201.921C210.082 202.167 210.069 202.434 210.135 202.686C210.478 204.348 211.315 205.865 212.539 207.041C213.572 207.978 214.99 208.314 215.962 209.293C216.536 209.868 216.965 210.572 217.214 211.347C217.273 211.54 217.376 211.716 217.515 211.862C217.654 212.008 217.826 212.118 218.016 212.185C218.207 212.251 218.41 212.273 218.609 212.246C218.809 212.22 219 212.145 219.166 212.032C219.379 211.881 219.541 211.67 219.63 211.425C219.719 211.18 219.732 210.915 219.665 210.662C219.262 209.213 218.426 207.921 217.27 206.959Z" fill="white"/>
<path d="M240.008 206.959C238.892 206.055 237.399 205.712 236.495 204.535C235.95 203.8 235.568 202.957 235.373 202.063C235.326 201.857 235.229 201.666 235.09 201.508C234.951 201.349 234.775 201.227 234.577 201.153C234.38 201.079 234.167 201.055 233.958 201.084C233.75 201.113 233.551 201.193 233.38 201.317C233.165 201.466 233.002 201.677 232.911 201.921C232.82 202.167 232.807 202.434 232.874 202.686C233.216 204.348 234.053 205.865 235.277 207.041C236.31 207.978 237.728 208.314 238.7 209.293C239.274 209.868 239.703 210.572 239.953 211.347C240.011 211.54 240.114 211.716 240.253 211.862C240.393 212.008 240.565 212.118 240.754 212.185C240.945 212.251 241.148 212.273 241.348 212.246C241.547 212.22 241.738 212.145 241.904 212.032C242.117 211.881 242.279 211.67 242.368 211.425C242.457 211.18 242.47 210.915 242.404 210.662C242 209.213 241.165 207.921 240.008 206.959Z" fill="white"/>
</g>
</svg>
