<svg width="262" height="240" viewBox="0 0 262 240" fill="none" xmlns="http://www.w3.org/2000/svg">
<mask id="mask0_1_212" style="mask-type:luminance" maskUnits="userSpaceOnUse" x="0" y="1" width="262" height="238">
<path d="M249.643 1.3584H12.3602C5.80785 1.3584 0.496094 6.67016 0.496094 13.2225V226.777C0.496094 233.33 5.80785 238.641 12.3602 238.641H249.643C256.196 238.641 261.507 233.33 261.507 226.777V13.2225C261.507 6.67016 256.196 1.3584 249.643 1.3584Z" fill="white"/>
</mask>
<g mask="url(#mask0_1_212)">
<path d="M142.828 121.135L98.6252 154.461L119.867 110.635L58.9209 111.963L109.678 91.806L51.1875 71.7727L103.431 72.381L71.2513 20.051L118.25 47.8457L138.313 -3.87598L137.14 55.1739L182.06 20.001L152.679 67.0456L207.71 42.7023L158.95 79.5732L212.654 79.1538L151.964 97.5833L207.255 119.031L142.828 121.135Z" fill="#F2F9FF"/>
<path d="M223.47 233.611C223.47 233.611 227.441 229.288 224.377 218.003C221.313 206.716 218.664 203.947 218.108 204.066C217.553 204.186 200.539 216.751 200.539 218.003C200.539 219.253 207.925 228.734 208.347 229.014C208.769 229.295 223.47 233.611 223.47 233.611Z" fill="#66B6FF"/>
<path d="M244.753 143.656C244.753 143.656 266.111 158.801 261.1 175.892C256.357 192.055 238.028 204.508 225.259 214.853C212.49 225.198 209.278 226.414 209.278 226.414L190.051 195.591L196.263 179.336L222.265 163.875L244.753 143.656Z" fill="#FFC2A0"/>
<path d="M33.2497 233.427C33.2497 233.427 31.317 225.395 37.1921 214.881C43.0672 204.367 47.4596 204.164 48.7175 205.422C49.9754 206.68 59.793 227.369 59.793 227.369C59.793 227.369 58.5422 230.082 57.2843 230.715C56.0263 231.346 33.2497 233.427 33.2497 233.427Z" fill="#66B6FF"/>
<path d="M14.6445 143.544C14.6445 143.544 -1.14648 154.894 2.40248 171.359C5.95145 187.825 23.2184 201.656 35.1302 212.942C47.0421 224.228 50.1834 225.697 50.1834 225.697L71.7162 196.427L58.9609 175.133L42.0313 162.315L14.6445 143.544Z" fill="#FFC2A0"/>
<path d="M132.517 158.415C131.533 155.948 128.602 154.198 126.312 153.13C122.502 151.373 114.364 150.136 112.257 154.69C109.22 154.423 105.931 154.577 103.598 156.798C102.768 157.545 102.198 158.537 101.97 159.631C101.743 160.724 101.871 161.861 102.333 162.877C100.347 163.662 98.6053 164.963 97.2873 166.644C95.6779 168.836 95.1791 171.775 96.662 174.178C97.3647 175.246 98.3063 175.513 99.1635 176.286C100.154 177.15 98.8545 178.844 99.1635 180.144C99.6341 182.323 101.462 183.25 103.457 183.657C104.097 187.109 117.337 190.531 117.337 190.531C117.337 190.531 117.274 191.234 119.221 189.034C120.898 187.05 122.211 184.785 123.099 182.344C125.503 176.293 126.459 169.799 130.599 164.564C131.983 162.737 133.459 160.762 132.517 158.415Z" fill="black"/>
<path d="M112.195 166.448C115.002 169.804 120.74 176.843 121.234 178.158L118.768 181.444L138.694 178.158C140.201 178.158 142.309 175.816 138.694 166.448C135.079 157.081 130.341 155.835 128.423 156.382H121.234L117.331 161.313L112.195 166.448Z" fill="#FFC2A0"/>
<path d="M139.662 194.481C133.239 197.291 122.93 193.384 118.888 190.678C114.862 187.973 119.88 174.599 119.88 174.599L134.216 166.398L138.355 164.029C138.357 164.041 138.357 164.053 138.355 164.065C138.405 164.156 138.566 164.458 138.798 164.908C139.03 165.358 139.311 165.913 139.655 166.595C141.518 170.333 144.842 177.326 145.98 181.88C147.287 186.848 146.086 191.655 139.662 194.481Z" fill="#FFC2A0"/>
<path d="M137.077 192.85C137.077 192.85 136.986 193.785 136.853 195.247C136.684 196.982 136.453 199.428 136.206 201.923C135.75 206.772 135.272 211.762 135.272 211.875C135.272 211.986 127.253 216.61 127.253 216.61L111.16 210.202L117.324 188.796L137.077 192.85Z" fill="#FFC2A0"/>
<path d="M128.955 173.103C128.842 172.919 128.708 172.75 128.555 172.596C128.355 172.381 128.096 172.23 127.81 172.161C127.03 172.021 126.742 172.738 126.931 173.37C127.087 173.915 127.397 174.403 127.824 174.775C127.993 174.93 128.195 175.045 128.414 175.113C128.525 175.145 128.642 175.151 128.755 175.13C128.868 175.11 128.976 175.062 129.068 174.993C129.175 174.876 129.253 174.736 129.294 174.583C129.336 174.43 129.34 174.269 129.307 174.115C129.258 173.758 129.138 173.414 128.955 173.103Z" fill="black"/>
<path d="M138.358 169.814C138.251 169.627 138.118 169.457 137.964 169.308C137.762 169.091 137.5 168.939 137.212 168.872C136.432 168.725 136.144 169.448 136.334 170.081C136.498 170.624 136.809 171.11 137.234 171.486C137.402 171.642 137.603 171.758 137.824 171.824C137.934 171.857 138.05 171.863 138.163 171.841C138.276 171.819 138.381 171.77 138.47 171.697C138.58 171.584 138.659 171.444 138.701 171.292C138.742 171.14 138.745 170.98 138.71 170.825C138.669 170.467 138.548 170.121 138.358 169.814Z" fill="black"/>
<path d="M128.131 167.389L128.032 167.298C127.759 167.089 127.433 166.962 127.091 166.932C126.26 166.863 125.426 167.005 124.666 167.347C123.989 167.589 123.359 167.945 122.804 168.401C122.157 168.956 120.836 170.798 122.263 171.289C122.729 171.407 123.222 171.372 123.668 171.191C125.208 170.755 126.644 170.009 127.884 168.998C128.163 168.81 128.368 168.528 128.461 168.205C128.473 168.052 128.449 167.899 128.392 167.758C128.334 167.616 128.245 167.49 128.131 167.389Z" fill="black"/>
<path d="M138.436 164.036C138.439 164.025 138.439 164.013 138.436 164.001C138.068 163.406 137.664 162.834 137.227 162.287L136.778 162.455C136.102 162.7 135.472 163.056 134.915 163.509C134.29 164.058 132.997 165.835 134.297 166.369L134.381 166.405C134.838 166.511 135.316 166.473 135.751 166.299C136.859 165.978 137.915 165.504 138.892 164.894H138.935C138.731 164.606 138.569 164.332 138.436 164.036Z" fill="black"/>
<path d="M135.901 176.785C135.828 176.783 135.757 176.763 135.694 176.727C135.631 176.69 135.579 176.638 135.541 176.575C135.503 176.513 135.483 176.442 135.481 176.369C135.479 176.297 135.495 176.224 135.528 176.159C136.112 175.112 136.527 173.925 136.4 173.672C135.349 172.95 134.251 172.302 133.111 171.732C133.012 171.679 132.939 171.59 132.905 171.484C132.873 171.377 132.883 171.261 132.935 171.162C132.989 171.066 133.078 170.992 133.185 170.961C133.292 170.929 133.406 170.941 133.504 170.994C134.724 171.612 135.899 172.317 137.018 173.102C137.721 173.749 136.857 175.562 136.315 176.616C136.27 176.68 136.205 176.731 136.132 176.76C136.059 176.79 135.979 176.799 135.901 176.785Z" fill="#D89A77"/>
<path d="M134.395 181.423C133.423 181.461 132.462 181.196 131.647 180.663C131.604 180.631 131.567 180.589 131.54 180.542C131.513 180.494 131.495 180.442 131.488 180.388C131.481 180.334 131.484 180.279 131.499 180.226C131.513 180.173 131.536 180.124 131.57 180.08C131.604 180.037 131.645 180.001 131.692 179.973C131.739 179.946 131.791 179.928 131.846 179.921C131.9 179.914 131.955 179.917 132.008 179.932C132.06 179.946 132.11 179.969 132.153 180.003C132.217 180.052 133.819 181.197 136.693 180.15C137.254 179.981 137.753 179.655 138.135 179.21C138.515 178.765 138.762 178.221 138.844 177.642C138.853 177.532 138.904 177.431 138.987 177.358C139.069 177.286 139.177 177.25 139.287 177.256C139.341 177.257 139.394 177.271 139.444 177.295C139.492 177.318 139.537 177.351 139.573 177.392C139.61 177.431 139.639 177.479 139.656 177.53C139.675 177.582 139.683 177.636 139.68 177.691C139.59 178.434 139.288 179.136 138.809 179.712C138.331 180.288 137.696 180.713 136.981 180.937C136.154 181.249 135.279 181.413 134.395 181.423Z" fill="#D89A77"/>
<path d="M136.854 195.274C136.686 197.009 136.453 199.455 136.207 201.95C135.817 201.912 135.435 201.812 135.076 201.655C131.562 200.123 125.371 193.222 125.371 193.222C127.179 193.816 129.021 194.303 130.888 194.684C132.857 195.038 134.853 195.235 136.854 195.274Z" fill="#D89A77"/>
<path d="M125.358 158.644C121.373 160.317 114.212 164.85 114.212 164.85C115.373 166.693 116.317 168.664 117.024 170.724C118.021 173.795 118.541 175.932 117.304 178.701C116.068 181.469 117.304 189.425 117.304 189.425C110.459 187.253 104.184 180.374 104.184 172.741C104.184 162.903 113.713 154.329 123.559 154.329C126.715 154.329 129.673 155.735 132.245 157.182C129.887 157.306 127.563 157.799 125.358 158.644Z" fill="black"/>
<path d="M121.648 177.93C123.314 181.564 122.555 185.485 119.948 186.68C117.341 187.874 113.876 185.893 112.217 182.253C110.559 178.612 111.318 174.697 113.926 173.503C116.533 172.309 119.984 174.29 121.648 177.93Z" fill="#FFC2A0"/>
<path d="M114.478 198.704L127.086 206.202L136.137 202.731L143.495 208.922L129.594 221.354L105.188 209.702L114.478 198.704Z" fill="#CCE7FF"/>
<path d="M179.989 305.995C179.363 314.773 172.048 319.58 172.048 319.58L137.465 321.688L136.622 321.737L92.6845 324.394C92.6845 324.394 88.0814 322.861 85.9942 319.376C83.0426 314.456 73.1758 270.182 73.1758 265.446C73.1758 260.709 91.1524 201.283 91.1524 201.283C91.1524 201.283 109.424 206.301 110.38 206.301L127.148 209.751L128.005 209.927L128.421 210.011L173.299 204.143C173.299 204.143 180.6 297.182 179.989 305.995Z" fill="#CCE7FF"/>
<path d="M137.464 321.653L136.62 321.701C137.078 318.505 137.231 315.272 137.077 312.046C136.466 299.635 128.792 225.549 127.147 209.773C126.957 207.96 126.845 206.913 126.838 206.821C126.832 206.766 126.837 206.711 126.853 206.659C126.868 206.606 126.894 206.558 126.928 206.515C126.964 206.473 127.006 206.437 127.055 206.412C127.102 206.386 127.156 206.369 127.21 206.364C127.32 206.354 127.429 206.387 127.516 206.454C127.602 206.522 127.658 206.621 127.674 206.73C127.674 206.835 127.807 207.967 128.004 209.948C129.706 226.288 137.316 299.642 137.914 312.01C138.077 315.231 137.925 318.461 137.464 321.653Z" fill="#66B6FF"/>
<path d="M108.397 205.901L58.9571 175.133C58.9571 175.133 59.7934 195.457 48.746 218.269C42.4211 231.34 33.25 233.427 33.25 233.427L79.028 270.428L105.403 239.281L108.397 205.901Z" fill="#CCE7FF"/>
<path d="M139.875 208.234L196.292 179.336C196.292 179.336 203.242 202.527 208.239 214.545C215.176 231.412 223.469 233.61 223.469 233.61L163.895 268.103C163.895 268.103 154.485 225.501 154.907 224.531C155.328 223.562 139.875 208.234 139.875 208.234Z" fill="#CCE7FF"/>
<path d="M14.6445 143.544L73.1778 101.729L93.1012 127.436C93.1012 127.436 48.4334 165.161 44.4699 167.852C40.5063 170.544 33.0429 171.893 32.4807 171.893C31.9184 171.893 18.8261 160.326 18.1303 159.489C17.4346 158.654 14.6445 143.544 14.6445 143.544Z" fill="#FFC2A0"/>
<path d="M36.5357 175.547C36.4564 175.543 36.3799 175.516 36.3157 175.469C36.2513 175.423 36.2017 175.359 36.1728 175.284C36.1439 175.21 36.137 175.129 36.1527 175.052C36.1685 174.974 36.2062 174.902 36.2616 174.845L45.8121 166.643C45.8522 166.6 45.9011 166.564 45.9558 166.541C46.0106 166.516 46.0697 166.504 46.1295 166.505C46.1892 166.505 46.2481 166.519 46.3023 166.543C46.3565 166.568 46.4049 166.605 46.444 166.65C46.4831 166.695 46.5121 166.748 46.5292 166.805C46.5463 166.863 46.5511 166.923 46.5432 166.982C46.5354 167.041 46.515 167.098 46.4835 167.149C46.4519 167.2 46.4099 167.242 46.3604 167.276L36.8097 175.477C36.7294 175.533 36.6325 175.557 36.5357 175.547Z" fill="#D89A77"/>
<path d="M93.0991 127.437C104.224 123.382 115.307 117.654 119.418 105.764C120.507 102.609 120.823 99.2562 121.47 95.9884C121.968 93.3319 122.495 90.6755 123.135 88.0472C124.077 84.1819 121.877 80.0005 118.328 83.1278C114.78 86.2551 114.358 95.0748 112.158 97.6539C109.959 100.233 107.457 100.269 105.995 97.9702C104.533 95.6721 100.457 88.2509 100.036 88.1315C99.6134 88.0121 80.1752 93.1492 79.6552 93.5639C79.1351 93.9785 73.1758 101.709 73.1758 101.709C73.1758 101.709 77.9826 116.77 78.0952 117.394C78.2076 118.02 93.0991 127.437 93.0991 127.437Z" fill="#FFC2A0"/>
<path d="M73.177 101.729C73.177 101.729 71.6098 94.3714 73.177 90.4008C73.617 89.27 74.3903 88.2995 75.3943 87.618C76.3983 86.9365 77.5857 86.5762 78.7991 86.5848C78.7991 86.5848 79.0591 83.8299 80.8371 82.3682C82.6151 80.9065 85.1731 81.3913 85.1731 81.3913C85.1731 81.3913 84.9131 78.4608 88.8837 77.5192C92.8544 76.5774 96.6141 80.9205 97.7667 83.3731C98.9191 85.8258 99.6498 92.4669 99.6498 92.4669C99.6498 92.4669 96.6141 99.9373 96.0941 100.901C95.574 101.863 92.5382 105.292 89.3546 105.609C86.1711 105.925 73.177 101.729 73.177 101.729Z" fill="#FFC2A0"/>
<path d="M95.6445 83.2888C95.6445 83.2888 98.2588 72.0445 104.324 68.9172C110.388 65.7899 114.774 69.0578 117.353 71.7775C119.229 73.7522 124.226 80.2598 119.279 81.6725C116.769 82.3752 114.696 80.6112 112.954 79.0863C111.917 78.1246 110.647 77.4489 109.271 77.1255C107.486 76.8092 107.001 78.0883 106.517 79.543C105.311 83.273 104.699 87.1694 104.704 91.0894C104.704 91.3144 104.704 91.5322 104.704 91.7922C104.865 96.1915 105.715 98.0187 106.439 98.6371C107.162 99.2556 108.47 102.229 106.903 101.765C105.335 101.3 99.8748 101.146 99.1165 100.05C98.3573 98.9534 96.4458 98.6934 96.3965 93.9356C96.3474 89.1779 95.6445 83.2888 95.6445 83.2888Z" fill="#FFC2A0"/>
<path d="M97.3733 101.49C96.4536 101.476 95.5487 101.258 94.724 100.85C94.6753 100.826 94.6321 100.791 94.5969 100.75C94.5617 100.707 94.5352 100.659 94.5189 100.606C94.5026 100.554 94.4968 100.5 94.5017 100.445C94.5067 100.39 94.5227 100.337 94.5483 100.289C94.5735 100.24 94.608 100.197 94.6499 100.162C94.6918 100.127 94.7405 100.1 94.7928 100.084C94.845 100.067 94.9 100.062 94.9545 100.067C95.0091 100.072 95.062 100.087 95.1104 100.113C95.1104 100.113 97.0219 101.09 98.6734 100.415C99.21 100.152 99.6816 99.7728 100.053 99.3049C100.426 98.8369 100.689 98.2919 100.824 97.7096C102.722 91.8064 96.3754 81.9958 96.3052 81.8974C96.2753 81.8513 96.2548 81.7998 96.245 81.7459C96.2353 81.6919 96.2361 81.6364 96.2479 81.5828C96.2597 81.5292 96.282 81.4785 96.3136 81.4335C96.3451 81.3886 96.3852 81.3504 96.4316 81.3211C96.5242 81.262 96.6364 81.2413 96.744 81.2637C96.8517 81.286 96.9464 81.3495 97.0079 81.4405C97.282 81.8552 103.642 91.6799 101.618 97.9626C101.45 98.6641 101.126 99.3186 100.669 99.8771C100.214 100.436 99.6361 100.884 98.9826 101.189C98.4714 101.394 97.9244 101.497 97.3733 101.49Z" fill="#D89A77"/>
<path d="M91.0676 105.665C89.1983 105.665 87.8209 104.021 87.2727 102.939C87.2223 102.84 87.2133 102.725 87.2476 102.619C87.2818 102.514 87.3566 102.426 87.4554 102.376C87.5542 102.326 87.6689 102.317 87.7743 102.351C87.8798 102.386 87.9673 102.46 88.0176 102.559C88.0809 102.692 89.6832 105.763 92.2342 104.534C93.8295 103.768 94.9961 100.198 93.0213 92.6501C90.9974 84.9197 85.551 82.1086 85.5017 82.0454C85.403 81.9951 85.3282 81.9076 85.2939 81.8021C85.2596 81.6967 85.2687 81.5819 85.319 81.4831C85.3693 81.3844 85.4568 81.3096 85.5622 81.2753C85.6677 81.2411 85.7824 81.2501 85.8812 81.3004C86.1131 81.4199 91.7072 84.3574 93.8295 92.4323C96.4789 102.545 93.5554 104.829 92.5926 105.293C92.1179 105.528 91.5971 105.654 91.0676 105.665Z" fill="#D89A77"/>
<path d="M84.4634 108.251C83.9443 108.236 83.4332 108.119 82.9593 107.908C82.4854 107.695 82.058 107.391 81.7016 107.014C80.6404 105.897 80.2961 104.379 80.0008 102.903C79.9025 102.424 79.7971 101.947 79.6706 101.497C79.3333 100.316 77.8926 97.126 77.8785 97.0978C77.8498 97.0468 77.832 96.9903 77.8262 96.932C77.8205 96.8737 77.827 96.8149 77.8453 96.7592C77.8636 96.7035 77.8934 96.6523 77.9325 96.6087C77.9718 96.5652 78.0195 96.5303 78.073 96.5063C78.1264 96.4823 78.1843 96.4696 78.2429 96.4692C78.3015 96.4688 78.3595 96.4806 78.4133 96.5038C78.4671 96.5272 78.5154 96.5614 78.5552 96.6043C78.595 96.6473 78.6255 96.6981 78.6446 96.7535C78.7008 96.887 80.1204 100.028 80.4788 101.266C80.6053 101.729 80.7107 102.221 80.8231 102.727C81.1112 104.083 81.4064 105.482 82.313 106.43C83.2196 107.38 84.7938 107.836 85.8268 106.887C86.5929 106.184 86.8739 104.983 87.0707 103.781C87.381 101.302 87.1411 98.785 86.3679 96.4091C84.3721 89.4658 79.2067 87.224 79.1506 87.2029C79.1001 87.1815 79.0543 87.1502 79.0159 87.1111C78.9776 87.0718 78.9474 87.0254 78.9271 86.9743C78.9069 86.9233 78.897 86.8688 78.8979 86.814C78.8989 86.7591 78.9106 86.705 78.9327 86.6548C78.9533 86.6045 78.9839 86.5589 79.0224 86.5206C79.061 86.4824 79.1069 86.4521 79.1573 86.4319C79.2077 86.4116 79.2618 86.4016 79.3161 86.4024C79.3705 86.4033 79.424 86.415 79.4738 86.4369C79.7057 86.5282 85.0959 88.8544 87.2042 96.1773C88.0086 98.6701 88.2487 101.311 87.9069 103.907C87.6891 105.264 87.3588 106.634 86.403 107.499C85.8765 107.989 85.1823 108.258 84.4634 108.251Z" fill="#D89A77"/>
<path d="M90.8729 114.491H90.7676C90.7142 114.477 90.6642 114.454 90.6204 114.42C90.5765 114.387 90.5397 114.345 90.5122 114.298C90.4847 114.249 90.4671 114.197 90.4602 114.142C90.4534 114.087 90.4576 114.032 90.4724 113.978C90.5145 113.796 91.674 109.481 96.5934 105.313C100.564 101.954 107.135 100.05 107.374 99.9726C107.48 99.9417 107.595 99.9545 107.692 100.008C107.787 100.061 107.86 100.151 107.89 100.257C107.921 100.363 107.908 100.478 107.855 100.575C107.801 100.672 107.712 100.743 107.605 100.773C107.542 100.773 100.971 102.713 97.1346 105.953C92.433 109.937 91.2876 114.147 91.2805 114.19C91.2546 114.277 91.2007 114.354 91.1273 114.408C91.0537 114.464 90.9645 114.492 90.8729 114.491Z" fill="#D89A77"/>
<path d="M244.756 143.656C244.756 143.656 242.128 157.958 241.439 158.801C240.751 159.644 227.778 171.352 227.223 171.366C226.667 171.38 220.286 172.181 216.295 169.532C213.553 167.712 195.661 148.618 184.67 136.826L178.992 130.676L176.125 127.563L195.802 101.645L202.492 107.38L208.818 112.847L244.756 143.656Z" fill="#FFC2A0"/>
<path d="M176.161 127.569C164.994 123.634 153.842 118.026 149.611 106.177C148.486 103.036 148.108 99.6909 147.453 96.4301C146.919 93.7736 146.365 91.1242 145.696 88.5028C144.712 84.6447 146.512 79.7253 150.103 82.8246C153.694 85.9238 154.552 95.411 156.779 97.9972C159.007 100.583 161.509 100.562 162.943 98.2432C164.376 95.9241 168.381 88.4677 168.797 88.3553C169.211 88.2428 188.706 93.1552 189.233 93.5698C189.76 93.9845 195.803 101.645 195.803 101.645C195.803 101.645 191.159 116.754 191.06 117.38C190.962 118.005 176.161 127.569 176.161 127.569Z" fill="#FFC2A0"/>
<path d="M195.803 101.646C195.803 101.646 197.293 94.2664 195.676 90.3098C195.226 89.1914 194.449 88.235 193.445 87.5654C192.442 86.8959 191.26 86.5445 190.055 86.5571C190.055 86.5571 189.759 83.8093 187.946 82.3826C186.133 80.956 183.604 81.455 183.604 81.455C183.604 81.455 183.828 78.5245 179.851 77.632C175.873 76.7394 172.12 81.1106 171.031 83.5773C169.941 86.0441 169.246 92.7133 169.246 92.7133C169.246 92.7133 172.359 100.149 172.893 101.083C173.427 102.017 176.491 105.44 179.682 105.714C182.872 105.988 195.803 101.646 195.803 101.646Z" fill="#FFC2A0"/>
<path d="M173.13 83.4505C173.13 83.4505 170.396 72.2063 164.296 69.1774C158.197 66.1485 153.847 69.4304 151.303 72.1712C149.447 74.1741 144.521 80.7309 149.483 82.0871C151.998 82.79 154.05 80.9769 155.807 79.4308C156.835 78.4606 158.096 77.773 159.468 77.4349C161.247 77.0976 161.745 78.3766 162.279 79.8243C163.512 83.5431 164.155 87.4319 164.184 91.3496C164.184 91.5675 164.184 91.7924 164.184 92.0524C164.079 96.4517 163.242 98.2859 162.525 98.9114C161.809 99.5368 160.537 102.524 162.097 102.046C163.657 101.567 169.125 101.343 169.869 100.247C170.615 99.1503 172.519 98.8411 172.519 94.1044C172.519 89.3679 173.13 83.4505 173.13 83.4505Z" fill="#FFC2A0"/>
<path d="M171.556 101.673C171.02 101.675 170.49 101.577 169.989 101.385C169.333 101.086 168.752 100.644 168.291 100.09C167.828 99.5365 167.496 98.8863 167.319 98.1873C165.211 91.9257 171.486 82.0237 171.753 81.6162C171.783 81.5697 171.821 81.5296 171.866 81.498C171.91 81.4666 171.962 81.4442 172.015 81.4325C172.068 81.4207 172.124 81.4197 172.178 81.4295C172.233 81.4393 172.284 81.4598 172.329 81.4896C172.421 81.55 172.487 81.6443 172.51 81.7519C172.534 81.8597 172.514 81.9724 172.456 82.0659C172.393 82.1643 166.131 92.0381 168.113 97.9203C168.254 98.5025 168.523 99.0458 168.902 99.5104C169.279 99.9749 169.757 100.349 170.299 100.605C171.965 101.266 173.812 100.274 173.848 100.267C173.944 100.226 174.053 100.223 174.152 100.257C174.251 100.292 174.333 100.362 174.384 100.454C174.434 100.546 174.448 100.654 174.422 100.756C174.398 100.858 174.335 100.947 174.248 101.006C173.412 101.426 172.493 101.654 171.556 101.673Z" fill="#D89A77"/>
<path d="M177.914 105.77C177.385 105.766 176.864 105.643 176.388 105.412C175.425 104.962 172.474 102.713 174.983 92.5723C177.014 84.4694 182.572 81.4756 182.812 81.328C182.91 81.2781 183.023 81.2686 183.128 81.3014C183.234 81.3343 183.322 81.4068 183.374 81.5037C183.424 81.6029 183.434 81.7177 183.401 81.8239C183.368 81.93 183.295 82.0193 183.198 82.073C183.142 82.073 177.731 85.0386 175.791 92.755C173.894 100.324 175.088 103.887 176.712 104.638C179.298 105.841 180.865 102.748 180.928 102.615C180.977 102.515 181.063 102.439 181.168 102.402C181.272 102.366 181.387 102.373 181.487 102.422C181.587 102.47 181.663 102.556 181.699 102.661C181.736 102.766 181.729 102.881 181.681 102.98C181.174 104.105 179.804 105.77 177.914 105.77Z" fill="#D89A77"/>
<path d="M184.552 108.286C183.852 108.297 183.173 108.047 182.647 107.583C181.685 106.733 181.333 105.362 181.102 104.013C180.747 101.42 180.969 98.78 181.755 96.2829C183.779 88.932 189.12 86.5496 189.344 86.4442C189.395 86.4226 189.449 86.411 189.503 86.4102C189.559 86.4094 189.613 86.4194 189.663 86.4397C189.715 86.4598 189.761 86.4899 189.801 86.528C189.839 86.5662 189.871 86.6118 189.893 86.6621C189.915 86.7123 189.926 86.7664 189.926 86.8212C189.927 86.876 189.918 86.9303 189.898 86.9813C189.877 87.0322 189.847 87.0786 189.809 87.1179C189.771 87.1571 189.725 87.1886 189.675 87.2102C189.626 87.2102 184.475 89.5504 182.563 96.5008C181.809 98.8834 181.591 101.403 181.923 103.879C182.135 105.075 182.429 106.283 183.202 106.965C184.25 107.893 185.817 107.443 186.716 106.473C187.616 105.503 187.89 104.112 188.171 102.755C188.269 102.249 188.367 101.758 188.494 101.286C188.839 100.05 190.223 96.8873 190.279 96.7538C190.296 96.6966 190.326 96.6437 190.364 96.5986C190.404 96.5536 190.452 96.5174 190.507 96.4923C190.561 96.4673 190.62 96.4542 190.68 96.4537C190.739 96.4531 190.799 96.4654 190.853 96.4894C190.907 96.5134 190.957 96.5489 190.996 96.5933C191.037 96.6377 191.066 96.69 191.084 96.7469C191.103 96.8038 191.109 96.8639 191.102 96.9232C191.095 96.9825 191.076 97.0398 191.046 97.0911C191.046 97.0911 189.64 100.324 189.303 101.512C189.183 101.961 189.085 102.432 188.986 102.917C188.691 104.393 188.382 105.911 187.335 107.042C186.977 107.425 186.547 107.731 186.069 107.945C185.591 108.158 185.075 108.275 184.552 108.286Z" fill="#D89A77"/>
<path d="M178.24 114.597C178.149 114.595 178.06 114.564 177.986 114.509C177.913 114.453 177.859 114.375 177.832 114.287C177.832 114.246 176.638 110.071 171.887 106.115C168.022 102.91 161.43 101.069 161.346 101.048C161.248 101.009 161.169 100.936 161.123 100.843C161.076 100.749 161.065 100.643 161.094 100.542C161.122 100.442 161.186 100.355 161.274 100.299C161.362 100.243 161.468 100.222 161.57 100.239C161.844 100.316 168.401 102.151 172.407 105.468C177.375 109.586 178.578 113.901 178.626 114.07C178.655 114.177 178.639 114.29 178.585 114.387C178.529 114.483 178.438 114.553 178.332 114.583L178.24 114.597Z" fill="#D89A77"/>
<path d="M223.769 178.092C223.712 178.093 223.655 178.081 223.603 178.059C223.552 178.036 223.505 178.001 223.467 177.959L215.245 169.146C215.17 169.065 215.129 168.957 215.133 168.846C215.137 168.735 215.184 168.631 215.266 168.555C215.347 168.48 215.454 168.44 215.565 168.444C215.676 168.448 215.781 168.496 215.856 168.577L224.079 177.389C224.156 177.468 224.199 177.574 224.199 177.685C224.199 177.795 224.156 177.901 224.079 177.979C224.037 178.019 223.989 178.049 223.935 178.068C223.882 178.087 223.826 178.095 223.769 178.092Z" fill="#D89A77"/>
<path d="M208.852 112.847L184.699 136.826L179.02 130.676L202.492 107.38L208.852 112.847Z" fill="#F43A3A"/>
<path d="M133.137 77.5024H127.793C127.582 77.5024 127.381 77.4189 127.232 77.2702C127.084 77.1216 127 76.9199 127 76.7097C127 76.4994 127.084 76.2978 127.232 76.1491C127.381 76.0004 127.582 75.917 127.793 75.917H133.137C133.347 75.917 133.549 76.0004 133.697 76.1491C133.847 76.2978 133.93 76.4994 133.93 76.7097C133.93 76.9199 133.847 77.1216 133.697 77.2702C133.549 77.4189 133.347 77.5024 133.137 77.5024Z" fill="black"/>
<path d="M133.137 87.1754H127.793C127.582 87.1754 127.381 87.0918 127.232 86.9431C127.084 86.7944 127 86.5929 127 86.3827C127 86.1724 127.084 85.9708 127.232 85.8221C127.381 85.6734 127.582 85.5898 127.793 85.5898H133.137C133.347 85.5898 133.549 85.6734 133.697 85.8221C133.847 85.9708 133.93 86.1724 133.93 86.3827C133.93 86.5929 133.847 86.7944 133.697 86.9431C133.549 87.0918 133.347 87.1754 133.137 87.1754Z" fill="black"/>
<path d="M127.234 81.427L119.221 81.6588C112.376 81.8561 105.703 83.8534 99.875 87.4496C99.9946 87.5266 100.095 87.6299 100.17 87.7516C100.244 87.8734 100.289 88.0105 100.303 88.1524C106.016 84.6161 112.563 82.6569 119.278 82.4741L127.289 82.2421C127.344 82.2403 127.399 82.2276 127.45 82.2048C127.501 82.1818 127.545 82.1492 127.584 82.1088C127.621 82.0683 127.651 82.0208 127.671 81.9689C127.69 81.917 127.698 81.8618 127.697 81.8064C127.694 81.7499 127.681 81.6944 127.655 81.6437C127.63 81.5931 127.595 81.5483 127.55 81.5124C127.507 81.4766 127.455 81.4504 127.401 81.4357C127.346 81.4209 127.289 81.418 127.234 81.427Z" fill="black"/>
<path d="M128.813 73.1475H128.626C124.076 73.1475 120.379 77.0755 120.379 81.9299C120.379 86.7843 124.076 90.7212 128.626 90.7212H128.813V73.1475Z" fill="#006DFF"/>
<path d="M166.764 94.1138C160.132 92.0752 154.165 88.3032 149.477 83.1871L144.062 77.2782C144.018 77.2382 143.982 77.1893 143.958 77.1344C143.934 77.0796 143.921 77.0202 143.922 76.9603C143.922 76.9003 143.936 76.8412 143.96 76.7867C143.985 76.7323 144.022 76.6838 144.067 76.6446C144.113 76.6054 144.166 76.5763 144.223 76.5593C144.281 76.5423 144.341 76.5378 144.4 76.546C144.461 76.5542 144.517 76.5749 144.568 76.6069C144.619 76.6388 144.662 76.6812 144.695 76.7312L150.11 82.6402C154.738 87.6974 160.646 91.4096 167.211 93.384C167.089 93.4659 166.985 93.5737 166.908 93.6997C166.831 93.8258 166.782 93.9671 166.764 94.1138Z" fill="black"/>
<path d="M140.242 73.1475V90.6944C142.416 90.4751 144.432 89.4561 145.897 87.8351C147.364 86.214 148.175 84.1064 148.175 81.921C148.175 79.7355 147.364 77.628 145.897 76.0069C144.432 74.3858 142.416 73.3668 140.242 73.1475Z" fill="#006DFF"/>
<path d="M140.341 73.1377H140.092C138.468 73.1377 137.152 74.4537 137.152 76.077V87.7721C137.152 89.3954 138.468 90.7115 140.092 90.7115H140.341C141.964 90.7115 143.28 89.3954 143.28 87.7721V76.077C143.28 74.4537 141.964 73.1377 140.341 73.1377Z" fill="#CCE7FF"/>
<path d="M141.411 76.7102C141.411 76.4741 141.341 76.2433 141.209 76.0471C141.079 75.8507 140.892 75.6978 140.673 75.6074C140.456 75.5171 140.216 75.4935 139.984 75.5395C139.753 75.5856 139.54 75.6993 139.373 75.8661C139.206 76.0331 139.092 76.2458 139.046 76.4772C139 76.7088 139.024 76.9488 139.114 77.1669C139.205 77.385 139.357 77.5714 139.554 77.7025C139.75 77.8337 139.981 77.9037 140.218 77.9037C140.534 77.9037 140.837 77.778 141.061 77.5541C141.285 77.3303 141.411 77.0267 141.411 76.7102Z" fill="black"/>
<path d="M141.411 86.383C141.411 86.1469 141.341 85.9161 141.209 85.7199C141.079 85.5236 140.892 85.3706 140.673 85.2803C140.456 85.19 140.216 85.1663 139.984 85.2124C139.753 85.2585 139.54 85.3721 139.373 85.5391C139.206 85.706 139.092 85.9186 139.046 86.1502C139 86.3817 139.024 86.6217 139.114 86.8398C139.205 87.0579 139.357 87.2442 139.554 87.3754C139.75 87.5065 139.981 87.5765 140.218 87.5765C140.534 87.5765 140.837 87.4508 141.061 87.2269C141.285 87.0031 141.411 86.6996 141.411 86.383Z" fill="black"/>
<path d="M119.581 217.615C119.47 217.611 119.365 217.566 119.285 217.489L108.744 207.074C108.676 206.994 108.641 206.891 108.645 206.785C108.649 206.681 108.692 206.581 108.766 206.506C108.841 206.431 108.939 206.387 109.044 206.381C109.15 206.376 109.253 206.41 109.334 206.477L119.545 216.555L126.931 206.533C126.968 206.485 127.014 206.444 127.068 206.416C127.121 206.386 127.18 206.369 127.241 206.364C127.301 206.358 127.362 206.366 127.419 206.387C127.476 206.408 127.528 206.44 127.571 206.484L136.327 215.338L140.713 208.164C140.734 208.105 140.769 208.052 140.813 208.008C140.858 207.965 140.912 207.932 140.972 207.912C141.03 207.892 141.093 207.885 141.156 207.892C141.217 207.899 141.277 207.919 141.33 207.952C141.383 207.986 141.427 208.029 141.462 208.082C141.496 208.134 141.517 208.193 141.525 208.256C141.534 208.317 141.528 208.38 141.51 208.439C141.49 208.499 141.458 208.553 141.416 208.599L136.749 216.231C136.716 216.286 136.671 216.331 136.618 216.366C136.563 216.399 136.503 216.421 136.44 216.428C136.376 216.434 136.313 216.426 136.253 216.404C136.193 216.383 136.14 216.347 136.095 216.301L127.325 207.418L119.918 217.447C119.883 217.496 119.838 217.535 119.785 217.565C119.733 217.594 119.676 217.611 119.615 217.615H119.581Z" fill="#66B6FF"/>
<path d="M130.543 215.676C130.439 215.675 130.339 215.635 130.263 215.565C130.187 215.495 130.139 215.399 130.129 215.296L129.931 212.977C129.922 212.867 129.957 212.758 130.028 212.673C130.099 212.589 130.201 212.537 130.311 212.527C130.421 212.518 130.53 212.552 130.614 212.624C130.699 212.695 130.752 212.797 130.761 212.906L130.964 215.226C130.972 215.337 130.937 215.446 130.863 215.53C130.791 215.614 130.688 215.667 130.578 215.676H130.543Z" fill="#66B6FF"/>
<path d="M74.2955 264.447H74.2183C74.1097 264.427 74.0136 264.365 73.9505 264.274C73.8875 264.183 73.8625 264.071 73.8809 263.963L85.9263 197.523C85.9459 197.415 86.008 197.318 86.0989 197.255C86.1899 197.191 86.3021 197.167 86.4112 197.186C86.5202 197.205 86.617 197.267 86.6803 197.358C86.7436 197.449 86.7681 197.562 86.7485 197.671L74.7032 264.11C74.6852 264.205 74.6346 264.291 74.5602 264.352C74.4858 264.414 74.3922 264.447 74.2955 264.447Z" fill="#66B6FF"/>
<path d="M177.431 259.929C177.34 259.929 177.252 259.899 177.18 259.845C177.107 259.79 177.055 259.713 177.03 259.626L160.565 201.416C160.547 201.313 160.568 201.208 160.624 201.119C160.679 201.031 160.766 200.967 160.867 200.939C160.967 200.911 161.075 200.921 161.168 200.968C161.262 201.014 161.334 201.094 161.373 201.191L177.831 259.402C177.846 259.454 177.851 259.509 177.844 259.563C177.838 259.617 177.821 259.67 177.794 259.718C177.767 259.766 177.731 259.807 177.689 259.841C177.645 259.875 177.596 259.9 177.543 259.914C177.507 259.927 177.468 259.931 177.431 259.929Z" fill="#66B6FF"/>
<path d="M78.9434 99.0615C70.1717 110.8 37.232 129.697 -24.3533 111.368C-85.9386 93.0392 -130.312 111.062 -144.801 122.366" stroke="black" stroke-width="0.785526"/>
<path d="M189.832 99.3238C252.543 88.0646 242.855 131.268 326.382 123.806C383.698 118.685 370.372 85.8389 437.403 93.956" stroke="black" stroke-width="0.785526"/>
</g>
</svg>
