<svg width="262" height="240" viewBox="0 0 262 240" fill="none" xmlns="http://www.w3.org/2000/svg">
<mask id="mask0_1_107" style="mask-type:luminance" maskUnits="userSpaceOnUse" x="0" y="0" width="262" height="240">
<path d="M250.091 0.909058H11.9091C5.33188 0.909058 0 6.24094 0 12.8181V227.182C0 233.759 5.33188 239.091 11.9091 239.091H250.091C256.668 239.091 262 233.759 262 227.182V12.8181C262 6.24094 256.668 0.909058 250.091 0.909058Z" fill="white"/>
</mask>
<g mask="url(#mask0_1_107)">
<path d="M183.434 104.317C182.817 103.296 181.961 102.437 180.942 101.817C176.822 99.226 171.659 99.4509 166.999 98.6144C147.209 95.0162 109.277 97.8678 92.087 100.153C84.6617 101.094 77.3185 102.598 70.1206 104.65C66.0636 105.828 59.3263 106.791 58.0759 111.496C56.7356 116.452 58.2379 124.314 60.073 129C61.8719 133.498 66.9812 141.513 72.5313 138.545C73.6681 138.018 74.8836 137.68 76.1294 137.546C100.344 133.615 124.704 129.63 149.351 130.448C155.297 130.448 161.224 130.736 167.161 130.944C171.425 131.087 176.948 132.031 180.942 130.043C187.509 126.778 186.636 116.389 185.367 110.381C185.066 108.266 184.412 106.216 183.434 104.317Z" fill="#FFDA4D"/>
<path d="M88.7747 100.423C88.3845 100.18 87.9436 100.032 87.4864 99.988C87.0292 99.9443 86.5681 100.007 86.1391 100.171C85.4106 100.342 83.6564 100.549 84.6638 101.422C91.5902 107.421 93.3983 118.018 93.6591 126.465C93.7491 128.938 97.716 128.956 97.626 126.465C97.3292 117.01 96.4836 107.097 88.7747 100.423Z" fill="#0085FF"/>
<path d="M160.115 97.1302C159.908 97.0304 159.68 96.9811 159.449 96.9863C158.955 96.9863 156.536 96.6625 156.985 97.715V97.7869C159.818 106.35 160.25 114.5 158.064 124.844C157.426 127.876 161.105 129.054 161.662 126.437C163.814 117.072 163.504 107.311 160.763 98.1017C160.729 97.9035 160.653 97.7148 160.542 97.5473C160.431 97.38 160.285 97.2379 160.115 97.1302Z" fill="#0085FF"/>
<path d="M60.1788 110.686C66.1967 108.986 68.1306 118.126 69.0032 122.272C69.5144 124.796 69.8867 127.345 70.1185 129.909C70.2863 131.132 70.3915 132.363 70.4334 133.597C70.4334 135.882 68.3555 134.451 67.4469 133.597C64.4605 130.781 63.0572 126.725 61.8159 122.92C61.4827 121.961 61.2034 120.986 60.9794 119.996C60.9165 119.654 60.4036 117.36 60.8894 116.992H62.7694L63.2642 118.107C64.2145 120.543 64.8436 123.092 65.1352 125.69C65.1892 126.122 65.8638 126.122 65.8098 125.69C65.5961 123.824 65.2229 121.979 64.6944 120.176C64.3077 118.917 63.9299 117.163 63.0124 116.146C61.753 114.77 60.4217 115.769 60.1428 117.325C59.5851 120.41 61.4651 124.314 62.5985 127.12C63.5994 129.928 65.2589 132.454 67.4379 134.488C68.5534 135.387 70.3704 136.763 71.036 134.694C71.5128 133.174 70.9282 131.024 70.7663 129.486C70.5773 127.687 70.3525 125.888 70.0466 124.089C69.237 119.385 67.2041 107.978 60.0079 110.02C59.922 110.044 59.8491 110.101 59.8053 110.179C59.7614 110.257 59.7501 110.348 59.774 110.434C59.7978 110.52 59.8549 110.593 59.9324 110.637C60.01 110.68 60.102 110.692 60.1878 110.669L60.1788 110.686Z" fill="#FFBC12"/>
<path d="M178.286 105.496C179.117 108.264 179.284 111.19 178.776 114.035C178.269 116.88 177.099 119.566 175.362 121.876C175.101 122.219 175.687 122.56 175.947 122.21C177.73 119.823 178.93 117.051 179.448 114.118C179.967 111.184 179.791 108.17 178.933 105.317C178.909 105.23 178.853 105.158 178.775 105.113C178.698 105.07 178.606 105.059 178.52 105.083C178.434 105.106 178.361 105.163 178.317 105.241C178.273 105.319 178.262 105.41 178.286 105.496Z" fill="#FFBC12"/>
<path d="M81.4969 114.06C82.444 115.24 82.9977 116.687 83.0801 118.197C83.0801 118.629 83.7818 118.629 83.7548 118.197C83.6556 116.508 83.026 114.894 81.9557 113.584C81.6859 113.25 81.2181 113.727 81.479 114.06H81.4969Z" fill="#FFBC12"/>
<path d="M184.217 200.746C183.45 189.501 182.683 178.259 181.916 167.02C181.226 156.816 181.315 146.201 179.625 136.107C177.544 123.722 165.509 120.38 154.134 119.709C136.206 118.66 117.117 116.149 99.4502 120.26C99.1261 120.328 98.8321 120.495 98.6095 120.741C84.5433 123.482 73.1482 130.945 70.4271 145.561C68.9064 153.725 69.1065 162.219 68.5863 170.482C67.9194 180.567 67.0989 190.638 66.1252 200.695C65.0646 211.3 63.8043 221.882 62.3436 232.439C61.2731 240.173 60.0425 248.226 62.5036 255.839C67.5858 271.556 85.2135 272.367 99.5196 271.956C123.53 271.267 168.18 278.169 179.675 261.833C184.727 254.649 186.267 250.657 186.388 242.223C186.458 231.299 184.917 211.63 184.217 200.746Z" fill="#0085FF"/>
<path d="M87.7685 129.562C83.2651 131.942 81.7275 137.026 80.1608 141.527C77.8209 148.228 75.7008 154.997 73.7653 161.812C73.753 161.901 73.7729 161.993 73.8213 162.068C73.8698 162.144 73.9436 162.201 74.0298 162.228C74.116 162.254 74.2089 162.249 74.2918 162.214C74.3746 162.178 74.4421 162.114 74.4823 162.033C76.1458 156.167 77.9443 150.339 79.8774 144.549C81.5843 139.526 83.0114 132.9 88.0902 130.216C88.5251 129.995 88.1748 129.332 87.7399 129.553L87.7685 129.562Z" fill="#006DFF"/>
<path d="M209.263 210.296C209.263 210.296 217.394 191.994 217.813 181.693C218.233 171.391 205.613 163.393 202.456 164.238C199.299 165.085 192.574 169.705 192.574 172.436C192.574 175.166 186.106 184.99 190.285 188.624C194.465 192.259 209.263 210.296 209.263 210.296Z" fill="#66B6FF"/>
<path d="M209.264 146.711L237.674 157.792C237.674 157.792 244.298 172.436 244.298 173.488C244.298 174.541 248.507 181.693 245.35 187.374C242.193 193.054 234.621 195.298 221.376 192.804C212.936 191.146 204.69 188.621 196.77 185.269L209.264 146.711Z" fill="#B1674C"/>
<path d="M81.6686 233.15C81.6686 233.15 78.7987 231.222 74.8031 223.547C70.8074 215.873 67.5477 210.192 68.3865 209.345C69.2254 208.499 81.2122 198.411 85.0019 196.939C88.7914 195.467 93.9423 193.996 94.5679 194.834C95.1933 195.674 90.256 216.498 89.211 219.118C88.1661 221.737 81.6686 233.15 81.6686 233.15Z" fill="#361E14"/>
<path d="M64.1486 170.758L43.957 193.2C43.957 193.2 50.8224 222.51 54.0529 228.676C57.2832 234.843 67.791 238.912 73.1185 233.164C78.4461 227.417 90.7789 207.785 90.7789 207.785C90.7789 207.785 88.1666 185.636 87.2321 183.392C86.2975 181.148 78.9979 171.751 77.3202 171.751C75.6425 171.751 64.1486 170.758 64.1486 170.758Z" fill="#B1674C"/>
<path d="M126.062 126.363C112.014 127.254 98.0994 130.904 87.2383 139.521C87.2383 139.521 88.7763 158.977 92.1392 170.898C95.502 182.818 92.2862 207.491 92.2862 208.47C92.2862 209.448 85.7954 232.243 88.3267 235.614C90.858 238.984 94.5825 242.217 102.221 240.576C105.083 239.957 155.831 238.745 157.796 239.583C157.796 243.579 168.404 240.976 172.187 238.591C175.969 236.207 181.044 183.097 184.856 165.989C188.668 148.881 190.323 138.645 190.323 138.645C190.323 138.645 173.885 132.456 172.575 132.022C164.883 129.576 156.969 127.9 148.947 127.018C141.351 126.146 133.694 125.927 126.062 126.363Z" fill="#CCE7FF"/>
<path d="M102.418 174.342C102.14 179.595 96.6718 221.796 94.5673 223.474C92.4629 225.152 81.6753 233.15 81.6753 233.15C83.5264 228.551 84.84 223.753 85.59 218.853C86.0215 215.341 86.0659 211.793 85.7224 208.272C85.3787 204.586 84.7738 200.929 83.9123 197.329C83.1387 194.053 81.9311 190.895 80.3214 187.94C76.5612 181.037 70.7996 175.43 64.1328 170.758C64.1328 170.758 71.2852 159.257 77.8784 150.426C84.4716 141.596 87.2235 139.528 87.2235 139.528C87.2235 139.528 99.8878 146.504 101.86 149.308C103.832 152.111 102.735 169.073 102.418 174.342Z" fill="#CCE7FF"/>
<path d="M66.938 166.828C66.8401 166.828 66.7448 166.797 66.6657 166.739C66.6163 166.705 66.5746 166.66 66.5429 166.608C66.5113 166.557 66.4904 166.499 66.4815 166.44C66.4725 166.38 66.4758 166.319 66.491 166.261C66.5062 166.202 66.5332 166.147 66.5701 166.099C68.417 163.597 70.3154 160.948 72.3906 158.05C73.5311 156.453 74.5981 154.768 75.7092 153.141C77.3943 150.573 79.1383 147.924 81.0588 145.489C83.929 141.861 87.3861 138.739 91.287 136.253C99.5943 130.962 109.389 127.659 120.412 126.422C120.532 126.41 120.654 126.446 120.749 126.521C120.843 126.597 120.905 126.707 120.92 126.827C120.932 126.948 120.897 127.069 120.821 127.163C120.745 127.259 120.636 127.32 120.515 127.335C109.632 128.557 99.9625 131.816 91.8168 137.026C88.0005 139.454 84.62 142.505 81.8168 146.055C79.9183 148.461 78.1818 151.096 76.5113 153.641C75.437 155.275 74.3038 156.968 73.178 158.587C71.1029 161.53 69.1895 164.142 67.3425 166.681C67.2933 166.737 67.2304 166.781 67.1595 166.807C67.0886 166.833 67.0124 166.84 66.938 166.828Z" fill="#66B6FF"/>
<path d="M79.7251 211.716L76.4175 228.67C76.4175 228.67 69.9667 241.809 57.3991 233.165C47.5577 226.396 44.703 202.016 41.7239 189.738C40.4348 184.397 38.6821 175.828 37.1188 167.771C36.5286 164.775 35.9699 161.867 35.4772 159.237C34.2483 152.775 33.3868 148.056 33.3868 148.056L60.7443 134.123C60.7443 134.123 63.3953 135.051 65.6941 142.788C66.0472 143.957 66.861 147.654 67.9386 152.779C68.4657 155.313 69.0606 158.198 69.6898 161.281C73.9135 181.83 79.7251 211.716 79.7251 211.716Z" fill="#B1674C"/>
<path d="M62.2952 135.468C57.8242 130.64 55.0626 130.88 48.1059 130.258C43.8568 129.886 38.7692 129.542 35.5692 126.384C33.094 123.95 32.4784 120.528 31.6619 117.309C30.9722 114.751 27.2091 113.792 25.8922 115.879C24.6748 117.823 24.9846 120.797 25.2888 122.953C25.7455 126.202 27.7296 128.721 30.009 130.976C30.009 130.976 27.5398 131.141 25.1669 128.675C22.794 126.21 22.3148 124.124 21.6599 121.189C21.0708 118.532 20.4841 115.962 18.5122 115.114C17.6843 114.718 16.738 114.645 15.8594 114.911C14.9809 115.177 14.2334 115.762 13.7637 116.55C14.131 116.224 12.9674 114.141 12.7695 113.881C11.5577 112.226 8.80811 111.771 7.37735 113.427C6.5586 114.51 6.04879 115.795 5.90239 117.144C5.7809 117.907 5.7068 118.675 5.68035 119.446C4.7855 119.376 3.89295 119.608 3.14402 120.102C2.39509 120.597 1.83261 121.327 1.54569 122.178C0.896347 124.174 1.58238 126.593 2.1102 128.567C3.05616 132.24 4.8339 135.645 7.30577 138.521C13.4035 145.414 22.5786 147.908 31.1506 150.13C32.8101 150.559 40.4875 152.038 40.4875 152.038C40.4875 152.038 44.5442 148.837 44.694 148.642C44.8436 148.447 68.0071 141.648 62.2952 135.468Z" fill="#B1674C"/>
<path d="M25.2635 138.706C25.1915 138.709 25.1199 138.693 25.0562 138.659C20.2885 136.38 16.5357 132.415 14.5243 127.528C11.9516 121.195 13.2918 117.1 13.3465 116.929C13.3867 116.814 13.47 116.72 13.5787 116.666C13.6875 116.612 13.8129 116.603 13.9282 116.641C14.0426 116.682 14.1367 116.765 14.1902 116.874C14.2438 116.982 14.2528 117.108 14.215 117.224C14.216 117.26 12.9378 121.193 15.3768 127.183C17.296 131.859 20.8856 135.655 25.4478 137.832C25.5023 137.858 25.5511 137.895 25.5915 137.939C25.6319 137.984 25.663 138.037 25.6829 138.094C25.7029 138.151 25.7113 138.211 25.7076 138.272C25.7041 138.331 25.6885 138.391 25.6619 138.445C25.6272 138.522 25.5713 138.588 25.5007 138.633C25.4301 138.68 25.3478 138.705 25.2635 138.706Z" fill="#844939"/>
<path d="M20.0038 143.938C19.9374 143.94 19.8716 143.927 19.8113 143.9C19.5882 143.809 14.3865 141.547 9.73336 135.318C5.30176 129.415 5.06123 120.39 5.05092 119.978C5.0479 119.857 5.09308 119.74 5.17648 119.652C5.25987 119.564 5.37472 119.514 5.49569 119.511C5.61665 119.508 5.7339 119.552 5.82158 119.636C5.90925 119.719 5.96005 119.834 5.96308 119.955C5.96547 120.051 6.19112 129.069 10.4624 134.74C12.9918 138.23 16.3181 141.064 20.1644 143.007C20.2624 143.046 20.3439 143.118 20.3949 143.21C20.4459 143.302 20.4635 143.409 20.4443 143.514C20.4252 143.617 20.3707 143.711 20.2902 143.779C20.2096 143.847 20.1079 143.886 20.0025 143.887L20.0038 143.938Z" fill="#844939"/>
<path d="M79.6204 207.546C79.5131 207.55 79.408 207.516 79.324 207.448C79.2399 207.382 79.1825 207.288 79.1622 207.182L71.0737 170.433C71.0605 170.374 71.059 170.314 71.0692 170.254C71.0795 170.196 71.1014 170.138 71.1337 170.088C71.166 170.037 71.2079 169.993 71.2572 169.959C71.3064 169.925 71.362 169.9 71.4207 169.887C71.5399 169.864 71.6632 169.889 71.7649 169.955C71.8667 170.021 71.9392 170.123 71.967 170.241L80.0556 206.99C80.0784 207.108 80.0552 207.231 79.9907 207.332C79.9261 207.434 79.8253 207.507 79.7085 207.536L79.6204 207.546Z" fill="#844939"/>
<path d="M208.058 205.1C208.742 208.309 209.258 210.295 209.258 210.295L174.069 199.993C174.069 199.993 172.179 162.766 172.487 161.398C172.796 160.029 190.302 138.646 190.302 138.646L209.272 146.74C209.272 146.74 203.739 167.211 204.577 181.325C204.659 182.561 204.747 183.797 204.864 185.004C205.54 191.759 206.606 198.469 208.058 205.1Z" fill="#CCE7FF"/>
<path d="M240.569 102.368L212.738 99.1893C212.738 99.1893 212.964 103.084 213.401 113.035C213.655 118.846 216.933 173.901 216.933 173.901L223.71 190.762C223.71 190.762 237.711 197.806 244.919 188.249C250.487 180.892 247.07 158.563 246.163 145.962C245.177 132.325 240.569 102.368 240.569 102.368Z" fill="#B1674C"/>
<path d="M213.55 104.278C212.53 101.382 212.447 98.2386 213.311 95.2925C214.739 90.2457 217.674 87.7993 222.402 83.5253C224.25 81.7296 226.189 80.0291 228.209 78.4304C229.608 77.4154 233.622 74.709 235.058 77.0786C236.031 78.6867 233.675 81.17 232.734 82.2827C231.197 84.0759 228.418 87.4033 228.418 87.4033C228.418 87.4033 237.324 103.643 237.376 105.764C237.428 107.886 235.909 110.873 235.909 110.873C235.909 110.873 221.787 112.761 221.42 112.885C221.053 113.009 213.55 104.278 213.55 104.278Z" fill="#B1674C"/>
<path d="M235.905 110.845C235.905 110.845 249.043 104.989 253.612 101.147C258.18 97.3061 261.39 93.6356 260.465 91.1013C259.54 88.5671 256.415 90.1573 256.415 90.1573C256.415 90.1573 259.867 86.2025 260.556 84.3047C261.245 82.4069 261.071 80.6194 259.718 79.8155C258.527 79.1024 256.621 80.053 256.621 80.053C256.763 79.9757 256.918 79.4914 256.974 79.3616C257.234 78.7996 257.436 78.213 257.578 77.6106C257.921 76.2116 257.824 74.3739 256.146 73.9492C255.45 73.7992 254.728 73.8154 254.039 73.9965C253.35 74.1775 252.714 74.5183 252.181 74.9912C251.31 75.8624 250.493 76.7877 249.737 77.7617C250.109 77.0205 250.268 76.1908 250.195 75.3649C250.111 73.4009 247.925 72.6978 246.371 73.6139C244.818 74.5301 243.87 76.2117 242.795 77.4971C242.254 78.1437 241.69 78.7847 241.119 79.4117C237.029 83.8212 226.655 87.805 226.655 87.805C226.655 87.805 222.043 103.79 222.63 105.567C223.216 107.346 235.905 110.845 235.905 110.845Z" fill="#B1674C"/>
<path d="M245.655 98.3257C245.544 98.3377 245.434 98.3098 245.344 98.2471C245.254 98.1844 245.189 98.091 245.162 97.9843C245.136 97.8776 245.147 97.7648 245.197 97.6665C245.247 97.5683 245.33 97.4913 245.432 97.4497C247.262 96.5918 249.01 95.566 250.651 94.3853C253.069 92.6205 255.792 90.1238 255.82 90.0995C255.912 90.0171 256.032 89.9745 256.155 89.981C256.279 89.9875 256.394 90.0425 256.476 90.1341C256.558 90.2256 256.601 90.3462 256.595 90.4692C256.588 90.5921 256.534 90.7076 256.441 90.7899C256.441 90.7899 253.65 93.3582 251.196 95.1479C249.507 96.3727 247.702 97.4305 245.807 98.3065C245.759 98.3233 245.706 98.3298 245.655 98.3257Z" fill="#844939"/>
<path d="M242.363 92.7617C242.272 92.7683 242.181 92.7478 242.101 92.7027C242.022 92.6575 241.958 92.5899 241.916 92.5082C241.889 92.4545 241.873 92.396 241.868 92.3362C241.864 92.2763 241.872 92.2161 241.891 92.1592C241.91 92.1021 241.94 92.0495 241.979 92.004C242.018 91.9587 242.066 91.9216 242.12 91.8948C244.491 90.6395 246.719 89.13 248.764 87.3926C251.974 84.6076 256.012 80.1946 256.051 80.1252C256.131 80.0343 256.243 79.9783 256.364 79.969C256.485 79.9598 256.605 79.9981 256.697 80.0757C256.743 80.1147 256.78 80.1624 256.808 80.216C256.835 80.2697 256.852 80.3282 256.856 80.3882C256.861 80.4482 256.854 80.5086 256.835 80.5658C256.816 80.6229 256.786 80.6758 256.747 80.7214C256.706 80.7687 252.628 85.2438 249.376 88.0615C247.278 89.8545 244.986 91.4067 242.543 92.6889C242.489 92.7263 242.428 92.7511 242.363 92.7617Z" fill="#844939"/>
<path d="M45.4494 152.37L45.3907 152.371L34.3223 151.287C34.2015 151.273 34.0905 151.212 34.0137 151.118C33.937 151.024 33.9007 150.903 33.9123 150.782C33.917 150.722 33.9338 150.664 33.9617 150.61C33.9895 150.556 34.0277 150.51 34.0741 150.471C34.1206 150.433 34.1743 150.404 34.2319 150.388C34.2896 150.371 34.35 150.365 34.4099 150.372L45.4781 151.456C45.5911 151.473 45.6939 151.531 45.7669 151.619C45.8397 151.708 45.8776 151.819 45.8732 151.933C45.8687 152.047 45.8224 152.156 45.7428 152.237C45.6633 152.32 45.5562 152.369 45.4423 152.377L45.4494 152.37Z" fill="#844939"/>
<path d="M241.802 107.516C241.707 107.516 241.615 107.487 241.538 107.433C241.46 107.379 241.401 107.303 241.368 107.214C241.329 107.099 241.337 106.973 241.389 106.864C241.441 106.754 241.534 106.669 241.648 106.626L245.967 105.117C246.024 105.098 246.084 105.09 246.145 105.094C246.204 105.098 246.264 105.112 246.317 105.139C246.372 105.166 246.419 105.204 246.459 105.248C246.499 105.294 246.529 105.347 246.548 105.404C246.569 105.461 246.578 105.52 246.575 105.581C246.572 105.641 246.557 105.7 246.532 105.755C246.506 105.808 246.469 105.857 246.423 105.897C246.379 105.936 246.326 105.967 246.269 105.986L241.95 107.494C241.901 107.508 241.852 107.516 241.802 107.516Z" fill="#844939"/>
<path d="M216.966 174.363C216.906 174.368 216.845 174.36 216.788 174.341C216.731 174.322 216.677 174.292 216.632 174.252C216.586 174.212 216.549 174.164 216.523 174.11C216.496 174.055 216.48 173.996 216.476 173.936L214.763 151.602C214.754 151.482 214.793 151.363 214.872 151.27C214.951 151.179 215.063 151.122 215.184 151.113C215.304 151.104 215.423 151.142 215.515 151.221C215.608 151.3 215.664 151.412 215.673 151.532L217.386 173.866C217.395 173.988 217.356 174.108 217.278 174.2C217.199 174.294 217.087 174.352 216.966 174.363Z" fill="#844939"/>
<path d="M142.473 128.226C142.473 128.226 141.62 137.578 132.061 137.578C122.502 137.578 121.648 127.372 121.648 127.372L126.409 105.48L141.737 113.678L141.862 116.341L142.112 122.148L142.473 128.226Z" fill="#B1674C"/>
<path d="M142.685 122.132C140.407 121.658 138.261 120.694 136.394 119.305C134.528 117.917 132.986 116.138 131.876 114.094C130.069 110.964 131.548 109.007 131.979 109.085C132.409 109.164 137.997 110.932 138.294 111.254L142.419 115.949L142.685 122.132Z" fill="#844939"/>
<path d="M169.484 158.609C175.328 158.609 180.066 153.871 180.066 148.028C180.066 142.183 175.328 137.446 169.484 137.446C163.64 137.446 158.902 142.183 158.902 148.028C158.902 153.871 163.64 158.609 169.484 158.609Z" fill="white"/>
<path d="M208.773 146.961C208.711 146.959 208.648 146.947 208.59 146.924C208.405 146.843 189.95 139.013 175.212 133.495C160.472 127.976 143.143 126.96 142.974 126.953C142.913 126.951 142.854 126.936 142.799 126.909C142.744 126.883 142.696 126.846 142.655 126.802C142.614 126.756 142.584 126.703 142.564 126.646C142.544 126.588 142.536 126.528 142.54 126.467C142.543 126.407 142.558 126.348 142.584 126.294C142.61 126.239 142.646 126.19 142.692 126.151C142.738 126.111 142.79 126.08 142.848 126.061C142.905 126.042 142.966 126.036 143.025 126.04C143.195 126.04 160.686 127.086 175.528 132.663C190.37 138.24 208.767 146.034 208.95 146.107C209.044 146.151 209.121 146.225 209.167 146.318C209.214 146.41 209.229 146.516 209.208 146.617C209.188 146.72 209.134 146.812 209.055 146.879C208.976 146.947 208.878 146.986 208.773 146.99V146.961Z" fill="#66B6FF"/>
<path d="M180.643 216.956C177.269 188.513 176.385 155.062 166.143 129.811C166.085 129.65 165.993 129.503 165.873 129.38C165.752 129.257 165.607 129.162 165.447 129.101C163.743 128.523 159.542 127.095 157.802 126.663C156.062 126.232 153.852 125.389 154.865 127.84C163.564 148.909 170.549 201.758 174.02 230.937C174.626 236.049 181.258 222.069 180.643 216.956Z" fill="#0085FF"/>
<path d="M160.763 180.269C161.843 161.949 161.197 143.032 151.058 127.025L148.508 126.515C160.763 146.918 159.629 162.175 158.57 180.139L160.763 180.269Z" fill="#1B1D29"/>
<path d="M158.826 120.805C158.984 122.235 159.493 123.024 160.949 123.34C161.223 123.438 161.513 123.478 161.804 123.457C162.094 123.435 162.376 123.354 162.633 123.217C162.823 123.087 162.967 122.9 163.045 122.682C163.106 122.516 162.992 121.955 163.045 121.867C163.351 121.578 162.887 121.112 162.58 121.402C162.505 121.472 162.445 121.558 162.406 121.653C162.367 121.749 162.348 121.851 162.352 121.955C162.352 122.086 162.43 122.261 162.405 122.384C162.299 122.823 161.694 122.814 161.352 122.761C160.904 122.721 160.47 122.583 160.08 122.358C159.872 122.158 159.707 121.917 159.599 121.649C159.49 121.382 159.439 121.094 159.449 120.805C159.449 120.394 158.748 120.385 158.791 120.805H158.826Z" fill="#006DFF"/>
<path d="M132.495 141.096C132.2 141.096 131.906 141.096 131.612 141.096C128.005 140.803 124.602 139.307 121.947 136.847C119.294 134.388 117.543 131.108 116.975 127.534C116.965 127.476 116.966 127.415 116.98 127.357C116.993 127.298 117.018 127.243 117.053 127.194C117.087 127.145 117.132 127.105 117.184 127.073C117.234 127.042 117.292 127.021 117.351 127.012C117.471 126.993 117.594 127.021 117.693 127.092C117.791 127.161 117.86 127.267 117.88 127.388C118.97 134.223 124.901 139.727 131.67 140.184C133.768 140.298 135.863 139.923 137.79 139.087C139.718 138.252 141.424 136.979 142.774 135.372C144.389 133.354 145.44 130.944 145.821 128.388C145.906 127.902 145.962 127.409 145.99 126.916C145.996 126.799 146.046 126.687 146.131 126.605C146.215 126.523 146.328 126.476 146.446 126.474C146.506 126.477 146.565 126.492 146.619 126.518C146.674 126.544 146.722 126.58 146.763 126.624C146.803 126.668 146.834 126.721 146.854 126.777C146.875 126.834 146.883 126.893 146.88 126.953C146.859 127.497 146.8 128.038 146.703 128.572C146.299 131.287 145.179 133.844 143.459 135.982C142.106 137.572 140.426 138.852 138.534 139.734C136.642 140.617 134.582 141.081 132.495 141.096Z" fill="#66B6FF"/>
<path d="M162.5 141.427C162.672 139.107 161.938 136.867 160.892 134.825C160.366 133.801 159.763 132.828 159.152 131.843C158.841 131.347 158.104 130.549 158.011 129.969C157.847 128.985 158.659 128.036 159.199 127.314C161.986 123.568 164.951 119.271 162.31 114.562C161.168 112.523 159.024 111.218 158.001 109.114C156.721 106.482 158.531 103.743 159.304 101.246C160.893 96.0019 157.058 90.7658 153.15 87.6276C152.545 87.1401 151.82 88.0776 152.373 88.5707C151.73 88.5161 151.086 88.6638 150.531 88.9931C148.776 90.0386 148.176 92.4716 147.667 94.2797C146.965 96.7773 146.522 99.357 145.647 101.805C145.197 103.082 144.591 104.297 143.846 105.428C143.375 106.1 142.939 106.799 142.541 107.519C142.462 107.563 142.395 107.629 142.348 107.707C142.303 107.786 142.278 107.876 142.277 107.967C142.271 108.016 142.265 108.064 142.259 108.11C142.196 108.272 142.134 108.437 142.082 108.609C142.052 108.7 142.043 108.796 142.057 108.889C142.07 108.983 142.104 109.073 142.159 109.151C141.66 113.105 139.799 117 140.707 121.018C141.134 122.925 140.096 124.509 140.674 126.316C141.321 128.335 143.453 130.251 144.013 132.298C144.195 133.063 144.531 133.781 144.997 134.412C145.464 135.044 146.052 135.574 146.729 135.972C148.713 137.19 149.497 139.257 150.4 141.331C151.362 143.497 151.348 146.795 156.109 148.015C159.54 148.791 162.267 144.537 162.5 141.427Z" fill="black"/>
<path d="M123.522 73.1879C123.278 72.675 123.028 72.1986 122.802 71.7375C121.779 67.7523 120.177 63.4066 116.253 61.6661C114.641 60.9497 112.543 60.8734 111.318 62.3407C110.302 63.5565 110.371 65.2091 110.872 66.6504C110.243 66.5943 109.612 66.7303 109.062 67.0404C108.512 67.3504 108.07 67.8201 107.792 68.3872C107.152 69.7864 107.747 71.3385 108.894 72.2065C108.217 72.8718 107.437 73.3697 107.441 74.4948C107.444 75.6199 108.203 76.5375 109.158 77.0474C111.688 78.3988 115.01 78.0549 117.631 76.9677C118.535 77.6163 119.546 77.9788 120.775 77.6149C122.004 77.2509 123.552 76.3247 123.864 74.9768C124.016 74.3101 123.816 73.7658 123.522 73.1879Z" fill="black"/>
<path d="M150.371 101.847C150.575 102.505 150.986 103.079 151.544 103.483C152.067 103.816 152.683 103.972 153.302 103.927C153.855 103.889 154.386 103.699 154.837 103.378C155.289 103.059 155.644 102.62 155.865 102.112M150.371 101.847L155.865 102.112L150.371 101.847ZM150.371 101.847C150.159 101.245 150.094 100.601 150.18 99.9673L150.371 101.847ZM155.865 102.112L155.768 102.07C155.767 102.071 155.767 102.071 155.767 102.072C155.767 102.073 155.766 102.073 155.766 102.074L155.865 102.112ZM149.714 101.476C149.875 102.257 150.25 102.979 150.798 103.559L150.802 103.563C151.325 104.068 152.005 104.381 152.729 104.45C153.392 104.519 154.061 104.4 154.659 104.105C155.257 103.811 155.76 103.354 156.11 102.786L156.111 102.784C156.394 102.297 156.571 101.756 156.632 101.196C156.691 100.636 156.633 100.07 156.458 99.5351C156.298 98.9886 156.029 98.4799 155.669 98.0388C155.308 97.5974 154.862 97.2328 154.358 96.9666L154.356 96.9657C154.221 96.8976 154.082 96.8368 153.94 96.7836L153.941 96.7832L153.931 96.7807C153.892 96.7697 153.85 96.7667 153.809 96.7718C153.769 96.777 153.729 96.7902 153.692 96.8106C153.656 96.831 153.625 96.8583 153.6 96.891C153.574 96.9236 153.556 96.961 153.545 97.0008C153.534 97.0405 153.531 97.0821 153.536 97.1231C153.541 97.1641 153.554 97.2037 153.575 97.2396C153.595 97.2756 153.623 97.3071 153.655 97.3324C153.688 97.3578 153.725 97.3765 153.765 97.3874L153.838 97.4074L151.603 103.395C151.065 103.004 150.669 102.451 150.473 101.816L150.472 101.812C150.264 101.225 150.201 100.598 150.284 99.9815C150.364 99.3493 150.577 98.7404 150.91 98.1973C150.984 98.0788 151.066 97.9657 151.156 97.859C151.286 97.7036 151.236 97.5162 151.133 97.4131C151.081 97.3613 151.009 97.3231 150.928 97.3204C150.844 97.3177 150.762 97.3543 150.7 97.4287L150.699 97.4298C150.243 97.9892 149.924 98.6472 149.766 99.3516C149.586 100.046 149.57 100.773 149.714 101.476ZM149.819 101.454C149.676 100.767 149.693 100.056 149.868 99.3762L156.019 102.73C155.68 103.281 155.193 103.725 154.612 104.011C154.033 104.296 153.383 104.413 152.74 104.345C152.04 104.279 151.382 103.976 150.875 103.487C150.341 102.92 149.975 102.216 149.819 101.454Z" fill="white"/>
<path d="M150.371 101.847C150.575 102.505 150.986 103.079 151.544 103.483C152.067 103.816 152.683 103.972 153.302 103.927C153.855 103.889 154.386 103.699 154.837 103.378C155.289 103.059 155.644 102.62 155.865 102.112M150.371 101.847L155.865 102.112M150.371 101.847C150.159 101.245 150.094 100.601 150.18 99.9673L150.371 101.847ZM155.865 102.112L155.768 102.07C155.767 102.071 155.767 102.071 155.767 102.072C155.767 102.073 155.766 102.073 155.766 102.074L155.865 102.112ZM149.819 101.454L149.714 101.476M149.819 101.454C149.676 100.767 149.693 100.056 149.868 99.3762L156.019 102.73C155.68 103.281 155.193 103.725 154.612 104.011C154.033 104.296 153.383 104.413 152.74 104.345C152.04 104.279 151.382 103.976 150.875 103.487C150.341 102.92 149.975 102.216 149.819 101.454ZM149.714 101.476C149.875 102.257 150.25 102.979 150.798 103.559L150.802 103.563C151.325 104.068 152.005 104.381 152.729 104.45C153.392 104.519 154.061 104.4 154.659 104.105C155.257 103.811 155.76 103.354 156.11 102.786L156.111 102.784C156.394 102.297 156.571 101.756 156.632 101.196C156.691 100.636 156.633 100.07 156.458 99.5351C156.298 98.9886 156.029 98.4799 155.669 98.0388C155.308 97.5974 154.862 97.2328 154.358 96.9666L154.356 96.9657C154.221 96.8976 154.082 96.8368 153.94 96.7836L153.941 96.7832L153.931 96.7807C153.892 96.7697 153.85 96.7667 153.809 96.7718C153.769 96.777 153.729 96.7902 153.692 96.8106C153.656 96.831 153.625 96.8583 153.6 96.891C153.574 96.9236 153.556 96.961 153.545 97.0008M149.714 101.476C149.57 100.773 149.586 100.046 149.766 99.3516C149.924 98.6472 150.243 97.9892 150.699 97.4298L150.7 97.4287C150.762 97.3543 150.844 97.3177 150.928 97.3204C151.009 97.3231 151.081 97.3613 151.133 97.4131C151.236 97.5162 151.286 97.7036 151.156 97.859C151.066 97.9657 150.984 98.0788 150.91 98.1973C150.577 98.7404 150.364 99.3493 150.284 99.9815C150.201 100.598 150.264 101.225 150.472 101.812L150.473 101.816C150.669 102.451 151.065 103.004 151.603 103.395L153.838 97.4074L153.765 97.3874C153.725 97.3765 153.688 97.3578 153.655 97.3324C153.623 97.3071 153.595 97.2756 153.575 97.2396C153.554 97.2037 153.541 97.1641 153.536 97.1231C153.531 97.0821 153.534 97.0405 153.545 97.0008M153.545 97.0008L153.646 97.0286" stroke="white" stroke-width="0.211099"/>
<path d="M154.594 100.176C154.305 95.121 154.322 89.7005 152.922 84.8087C150.322 75.7177 139.322 72.1971 131.264 76.6704C129.774 77.48 128.49 78.6236 127.516 80.0116C126.54 81.3996 125.9 82.9943 125.644 84.6711C124.936 88.8766 125.493 93.4549 125.802 97.6681C126.093 101.697 127.375 109.385 127.638 109.601C127.705 110.024 129.332 110.575 129.659 110.724C131.118 111.403 132.585 112.021 134.093 112.566C137.24 113.71 140.537 114.388 143.88 114.578C146.701 114.745 149.561 114.535 151.744 112.523C153.143 111.284 154.138 109.653 154.599 107.842C155.157 105.407 154.732 102.652 154.594 100.176Z" fill="#B1674C"/>
<path d="M152.732 87.7547C152.604 87.2936 152.348 86.8774 151.997 86.5527C151.128 85.7076 149.689 85.2602 148.498 85.6568C147.96 85.8705 147.506 86.2535 147.205 86.748C147.087 86.9228 147.004 87.1193 146.962 87.3261C146.92 87.5328 146.919 87.7459 146.96 87.953C147.216 88.9833 148.142 88.7047 148.891 88.5397C149.962 88.3042 150.958 89.0757 151.999 88.7869C152.669 88.6212 152.827 88.2055 152.732 87.7547Z" fill="black"/>
<path d="M140.455 87.7775C140.382 85.9144 138.252 85.6456 136.887 86.0048C135.453 86.3767 133.74 87.1522 133.007 88.5768C132.532 89.4994 132.749 90.3981 133.847 90.3946C134.691 90.3838 135.394 89.9349 136.178 89.6909C137.494 89.2793 140.531 89.9438 140.455 87.7775Z" fill="black"/>
<path d="M89.1294 228.059C89.0577 228.06 88.9867 228.044 88.9226 228.012C88.8585 227.979 88.8033 227.933 88.7615 227.874C88.7246 227.826 88.6976 227.772 88.6824 227.713C88.6672 227.655 88.664 227.593 88.6729 227.534C88.6818 227.474 88.7029 227.417 88.7345 227.365C88.7662 227.313 88.8078 227.269 88.8571 227.234C94.3685 223.157 101.47 216.292 103.993 206.74C106.555 197.049 105.612 186.358 104.376 179.087C103.768 175.443 102.83 171.863 101.573 168.388C96.0905 153.59 88.9969 150.029 88.9307 149.993C88.8338 149.932 88.7624 149.838 88.7303 149.729C88.6983 149.619 88.7077 149.501 88.7569 149.398C88.8062 149.296 88.8916 149.214 88.997 149.171C89.1024 149.126 89.2203 149.123 89.3281 149.161C89.6298 149.308 96.819 152.921 102.433 168.065C103.712 171.591 104.665 175.226 105.281 178.926C106.532 186.285 107.489 197.116 104.876 206.962C102.264 216.808 95.0309 223.797 89.4237 227.962C89.3394 228.027 89.2356 228.061 89.1294 228.059Z" fill="#66B6FF"/>
<path d="M114.796 167.91C120.64 167.91 125.377 163.173 125.377 157.328C125.377 151.485 120.64 146.747 114.796 146.747C108.952 146.747 104.215 151.485 104.215 157.328C104.215 163.173 108.952 167.91 114.796 167.91Z" fill="white"/>
<path d="M100.528 216.196C100.43 216.194 100.334 216.16 100.256 216.101C100.206 216.066 100.165 216.021 100.133 215.97C100.101 215.918 100.08 215.861 100.071 215.801C100.062 215.742 100.065 215.68 100.081 215.621C100.096 215.563 100.123 215.508 100.16 215.461L111.514 200.206C111.55 200.158 111.594 200.117 111.646 200.086C111.698 200.055 111.755 200.034 111.815 200.026C111.874 200.017 111.935 200.02 111.992 200.034C112.051 200.049 112.106 200.075 112.154 200.111C112.203 200.147 112.243 200.191 112.274 200.243C112.305 200.294 112.326 200.351 112.335 200.411C112.344 200.47 112.341 200.531 112.326 200.589C112.312 200.648 112.286 200.702 112.249 200.751L100.866 216.013C100.828 216.066 100.777 216.111 100.718 216.143C100.66 216.174 100.594 216.193 100.528 216.196Z" fill="#66B6FF"/>
<path d="M94.6914 197.823C94.6908 200.349 93.7859 202.791 92.1406 204.707C90.4952 206.624 88.218 207.888 85.7213 208.272C85.3776 204.586 84.7727 200.929 83.9112 197.33C83.1376 194.054 81.93 190.896 80.3203 187.94C81.9231 187.324 83.6521 187.107 85.3576 187.308C87.063 187.51 88.6937 188.123 90.1087 189.097C91.5238 190.069 92.6806 191.372 93.479 192.893C94.2774 194.413 94.6936 196.105 94.6914 197.823Z" fill="white"/>
<path d="M115.991 126.411C115.694 124.137 110.276 126.166 108.938 126.411C108.598 126.485 94.1816 134.463 93.9161 134.686C92.9175 135.568 99.7055 125.571 101.756 140.316C102.521 145.83 101.756 150.419 100.694 155.891C98.6647 166.811 97.1138 178.433 93.5549 188.972C90.8353 197.014 85.7182 215.117 77.2559 227.994C75.0782 232.69 85.9244 240.636 88.2934 236.088C104.026 205.96 115.62 158.674 117 127.452C117.022 127.25 116.023 126.666 115.991 126.411Z" fill="#0085FF"/>
<path d="M116.258 134.542C117.73 126.816 115.89 125.049 114.418 125.344" stroke="#006DFF" stroke-width="0.735847" stroke-linecap="round"/>
<path d="M125.113 176.345L127.164 175.611C126.389 173.45 125.039 170.085 124.024 167.322C119.612 155.302 120.453 139.777 119.433 126.516H117.902C117.576 136.342 118.668 158.65 122.406 168.905C123.411 171.662 124.34 174.189 125.113 176.345Z" fill="#1B1D29"/>
<path d="M158.047 83.2345C157.942 83.5922 158.701 85.1278 158.699 85.7023C158.694 86.5848 158.489 87.4547 158.099 88.2468C157.438 89.5908 155.907 91.174 154.27 91.0447C152.169 90.8813 152.343 86.3892 151.855 84.9464C151.292 83.2038 150.383 81.5926 149.183 80.2093C146.999 77.7614 143.575 76.393 140.356 77.1327C139.642 77.2961 138.659 79.3656 138.347 79.9691C137.804 81.0711 137.393 82.2339 137.125 83.4329C136.487 86.0158 136.594 88.736 135.899 91.3363C135.178 94.0323 133.483 98.3572 130.133 98.4162C129.137 98.442 127.565 97.3074 126.731 96.7509C126.366 96.4979 126.051 96.1818 125.798 95.8175C124.474 98.1283 124.75 101.086 126.957 102.938C128.809 104.494 131.38 104.902 133.11 106.644C135.26 108.812 134.018 112.402 133.124 114.989L133.11 115.028C133.11 117.067 133.417 116.774 134.419 119.034C135.344 121.128 134.818 123.683 134.419 125.895C134.142 127.451 134.878 126.95 134.419 131.172C132.307 134.338 130.903 133.827 131.252 135.922C131.78 139.088 129.141 137.505 129.141 141.727C129.705 144.853 125.44 151.118 120.751 146.944C118.698 143.237 117.543 141.948 115.714 138.13C113.84 134.223 114.814 129.474 111.536 126.561C109.569 124.811 112.972 119.098 111.315 117.067C110.986 116.663 110.732 116.436 110.67 116.395C110.142 116.048 109.065 115.623 108.031 114.284C106.998 112.945 107.453 112.28 108.031 109.534C107.372 107.925 106.451 105.446 106.975 103.729C107.804 101.01 108.991 102.146 109.492 98.4183C109.339 97.7223 109.057 97.0718 108.991 96.3406C108.903 95.2596 109.03 94.1719 109.364 93.1402C109.699 92.1085 110.234 91.1533 110.939 90.3297C109.471 86.6838 109.322 82.4875 111.536 79.0746C113.332 76.3229 116.247 74.6485 119.328 73.6378C119.838 73.4095 120.317 73.1169 120.751 72.7669C121.935 71.7638 122.575 70.3616 123.942 69.5207C126.555 67.9163 129.678 68.2611 132.564 68.7985C132.631 68.7053 132.724 68.6342 132.831 68.5943C135.955 67.3449 139.677 66.8384 142.94 67.9177C144.341 68.399 145.544 69.3309 146.36 70.5679C146.922 71.3556 147.395 72.2281 148.193 72.8385C148.99 73.449 149.98 73.6822 150.938 73.902C153.883 74.5766 156.553 75.7077 157.807 78.6872C158.414 80.1289 158.498 81.7372 158.047 83.2345Z" fill="black"/>
<path d="M127.346 97.218C125.679 94.9342 123.087 93.2443 121.362 95.0164C119.49 96.943 121.576 99.9284 123.087 101.442C124.323 102.673 127.674 104.492 128.784 102.161C129.324 100.984 128.593 98.9202 127.346 97.218Z" fill="#B1674C"/>
<path d="M145.627 93.5652C146.305 94.0276 146.982 94.7805 147.157 95.572C147.208 95.7596 147.221 95.9556 147.195 96.1485C147.177 96.3267 147.112 96.4972 147.01 96.6441C146.756 96.9655 146.391 97.1788 145.986 97.2409C145.869 97.2644 145.764 97.3316 145.695 97.429C145.625 97.5263 145.595 97.6464 145.61 97.7651C145.629 97.8856 145.694 97.994 145.792 98.0669C145.889 98.1398 146.011 98.1717 146.133 98.1555C146.735 98.0563 147.285 97.7511 147.688 97.292C147.873 97.0556 148.007 96.7829 148.081 96.4914C148.154 96.2 148.166 95.8963 148.114 95.6001C147.947 94.4852 147.112 93.459 146.202 92.8373C146.154 92.798 146.099 92.7688 146.039 92.7512C145.981 92.7336 145.918 92.7283 145.857 92.7353C145.795 92.7423 145.737 92.7616 145.682 92.7921C145.628 92.8225 145.582 92.8635 145.544 92.9126C145.506 92.9617 145.479 93.0178 145.464 93.0776C145.449 93.1374 145.445 93.1998 145.455 93.2609C145.464 93.3219 145.485 93.3806 145.517 93.4332C145.55 93.4858 145.593 93.5313 145.643 93.5671L145.627 93.5652Z" fill="#844939"/>
<path d="M143.121 97.4238L143.181 97.3821L143.248 97.3472C143.325 97.3093 143.405 97.2772 143.488 97.251C143.521 97.2396 143.576 97.2374 143.455 97.2467L143.516 97.2327L143.649 97.2062C143.737 97.1927 143.827 97.1855 143.917 97.1845L143.798 97.1696C143.954 97.1707 144.109 97.1902 144.26 97.2279L144.141 97.1974L144.257 97.2336C144.318 97.2607 144.384 97.2751 144.45 97.2761C144.517 97.2771 144.583 97.2646 144.645 97.2393C144.755 97.1928 144.843 97.1052 144.889 96.9952C144.934 96.8821 144.933 96.756 144.887 96.6435C144.841 96.5311 144.752 96.4409 144.641 96.3922C144.295 96.2766 143.926 96.244 143.565 96.2971C143.204 96.3503 142.861 96.4879 142.563 96.6985C142.468 96.7737 142.405 96.8835 142.39 97.0041C142.375 97.1248 142.408 97.2466 142.482 97.3433C142.558 97.4367 142.668 97.4974 142.788 97.5126C142.907 97.5277 143.029 97.4962 143.127 97.4246L143.121 97.4238Z" fill="#844939"/>
<path d="M149.079 99.776C149.053 99.7371 149.021 99.7028 148.984 99.6744C148.895 99.6217 148.793 99.5923 148.69 99.5891C148.587 99.5857 148.485 99.6085 148.393 99.6555C146.74 100.338 144.946 100.603 143.166 100.426C142.556 100.365 141.361 99.8214 140.798 100.226C140.233 100.631 140.552 101.36 141.014 101.764C142.769 103.302 147.344 104.294 148.766 101.816C148.989 101.42 149.405 100.256 149.079 99.776Z" fill="white"/>
<path d="M123.388 97.1284C123.456 97.0597 123.451 97.0498 123.538 97.0237C123.493 97.0365 123.587 97.0299 123.598 97.0158C123.609 97.0017 123.598 97.0158 123.655 97.023C123.72 97.0214 123.784 97.037 123.841 97.0682C123.912 97.1015 123.979 97.1442 124.038 97.195C124.344 97.4875 124.614 97.8151 124.842 98.1708C125.422 98.9465 125.97 99.7437 126.484 100.563C126.558 100.659 126.668 100.721 126.789 100.736C126.911 100.752 127.033 100.718 127.129 100.644C127.222 100.568 127.283 100.457 127.298 100.338C127.313 100.218 127.282 100.097 127.21 99.9992C126.618 99.0573 125.983 98.1438 125.304 97.2589C125.029 96.8239 124.65 96.4655 124.199 96.2173C123.976 96.1134 123.728 96.076 123.485 96.1094C123.241 96.1427 123.012 96.2454 122.825 96.4053C122.731 96.4828 122.672 96.5928 122.656 96.7131C122.641 96.8334 122.672 96.9548 122.743 97.0531C122.819 97.1489 122.929 97.2112 123.05 97.2264C123.172 97.2417 123.294 97.2089 123.391 97.1348L123.388 97.1284Z" fill="#844939"/>
<path d="M131.731 83.5028C130.822 86.866 128.857 89.8479 126.125 92.0089C125.365 92.6113 124.55 93.1406 123.692 93.5896C123.581 93.6404 123.496 93.7312 123.451 93.8433C123.407 93.9556 123.407 94.0805 123.451 94.1926C123.5 94.3002 123.588 94.385 123.698 94.4298C123.807 94.4746 123.929 94.476 124.039 94.4337C127.293 92.7149 129.91 89.9979 131.506 86.6817C131.943 85.7738 132.293 84.827 132.552 83.8537C132.596 83.7425 132.596 83.6192 132.552 83.508C132.509 83.3968 132.426 83.3058 132.319 83.2527C132.206 83.2069 132.08 83.2073 131.966 83.2537C131.854 83.3002 131.764 83.3889 131.716 83.501L131.731 83.5028Z" fill="#292B37"/>
<path d="M141.451 76.0474C141.961 75.1724 142.726 74.4743 143.644 74.047C144.098 73.8257 144.586 73.6786 145.086 73.6112C145.642 73.5129 146.214 73.5852 146.728 73.8185C146.84 73.8613 146.965 73.8589 147.074 73.8118C147.184 73.7647 147.271 73.6767 147.318 73.5663C147.363 73.456 147.364 73.332 147.321 73.2208C147.277 73.1094 147.192 73.0196 147.083 72.9703C146.432 72.6827 145.711 72.5917 145.008 72.7084C144.43 72.7774 143.864 72.9354 143.333 73.1767C142.246 73.6607 141.333 74.4679 140.721 75.4886C140.651 75.5869 140.621 75.7081 140.637 75.8277C140.653 75.9473 140.713 76.0565 140.807 76.1329C140.903 76.2013 141.022 76.2303 141.139 76.214C141.255 76.1978 141.362 76.1375 141.436 76.0455L141.451 76.0474Z" fill="#292B37"/>
<path d="M110.436 99.0009C111.797 99.3089 113.084 99.8853 114.22 100.696C114.702 101.041 115.264 100.312 114.782 99.9666C113.511 99.0649 112.072 98.4264 110.551 98.0885C110.43 98.0732 110.308 98.1066 110.211 98.1814C110.115 98.2561 110.053 98.366 110.038 98.4871C110.025 98.6075 110.06 98.728 110.134 98.8236C110.208 98.9191 110.317 98.9826 110.436 99.0009Z" fill="#292B37"/>
<path d="M121.842 136.364C123.203 136.672 124.49 137.248 125.626 138.059C126.108 138.404 126.67 137.675 126.188 137.329C124.917 136.428 123.478 135.789 121.957 135.452C121.837 135.437 121.715 135.47 121.617 135.545C121.521 135.619 121.459 135.73 121.444 135.851C121.432 135.971 121.466 136.091 121.54 136.187C121.614 136.282 121.723 136.346 121.842 136.364Z" fill="#292B37"/>
<path d="M121.675 71.1654C120.238 71.0569 118.798 71.3187 117.491 71.9256C116.516 72.3963 115.644 73.0594 114.931 73.8752C114.217 74.6909 113.675 75.6424 113.339 76.6727C113.294 76.7837 113.293 76.9076 113.337 77.0191C113.38 77.1307 113.464 77.2217 113.572 77.2737C113.684 77.3192 113.81 77.3187 113.923 77.2722C114.035 77.2256 114.125 77.1368 114.171 77.025C114.548 75.8511 115.219 74.794 116.124 73.956C117.027 73.1179 118.131 72.5273 119.33 72.2412C120.061 72.0794 120.813 72.0243 121.56 72.0777C121.68 72.0898 121.801 72.0552 121.896 71.981C121.992 71.9068 122.055 71.7988 122.074 71.6792C122.088 71.5583 122.054 71.4366 121.98 71.3405C121.905 71.2443 121.796 71.1814 121.675 71.1654Z" fill="white"/>
<path d="M153.057 113.818C154.492 116.916 154.228 120.912 152.1 123.646C151.561 124.384 150.805 124.936 149.939 125.228C149.827 125.275 149.739 125.366 149.694 125.479C149.648 125.592 149.649 125.718 149.696 125.83C149.745 125.936 149.834 126.021 149.943 126.065C150.051 126.11 150.173 126.112 150.283 126.071C152.093 125.514 153.306 123.789 154.014 122.12C154.752 120.356 155.012 118.427 154.769 116.53C154.636 115.462 154.339 114.421 153.889 113.444C153.648 112.91 152.793 113.265 153.043 113.807L153.057 113.818Z" fill="#292B37"/>
<path d="M157.976 82.7215C157.792 81.8838 157.423 81.0977 156.896 80.4208C156.37 79.7438 155.698 79.1931 154.932 78.8088C154.819 78.7618 154.692 78.7615 154.579 78.808C154.465 78.8546 154.376 78.9442 154.328 79.0571C154.282 79.17 154.281 79.2969 154.327 79.41C154.374 79.5231 154.464 79.613 154.577 79.66C154.727 79.7308 154.871 79.8131 155.009 79.9062C155.161 80.0059 155.308 80.114 155.447 80.2303C155.52 80.2889 155.593 80.3536 155.661 80.418L155.751 80.4972C155.819 80.5646 155.751 80.4972 155.799 80.5497C155.932 80.6867 156.057 80.8304 156.174 80.9802C156.388 81.2467 156.568 81.5371 156.714 81.8455C156.796 82.0177 156.868 82.194 156.932 82.3735L156.976 82.509C156.976 82.509 157.018 82.647 156.999 82.5766C157.025 82.6665 157.044 82.7585 157.067 82.8509C157.072 82.913 157.09 82.9733 157.119 83.0282C157.149 83.0831 157.19 83.1314 157.238 83.1701C157.288 83.2088 157.343 83.2372 157.404 83.2535C157.465 83.2698 157.527 83.2736 157.589 83.2649C157.65 83.2561 157.71 83.2348 157.763 83.2024C157.817 83.17 157.862 83.127 157.899 83.0762C157.935 83.0254 157.961 82.9678 157.974 82.9068C157.987 82.8458 157.988 82.7828 157.976 82.7215Z" fill="#292B37"/>
<path d="M131.419 74.7436C129.931 74.9574 128.411 75.2662 127.085 76.0071C125.942 76.6598 124.958 77.5581 124.204 78.6374C122.521 81.0266 121.939 83.9502 121.934 86.8292C121.966 88.7072 122.106 90.5819 122.352 92.4438C122.421 93.0332 123.33 92.9009 123.262 92.3145C122.907 89.2262 122.537 86.0433 123.263 82.9803C123.809 80.6639 125.081 78.3742 127.127 77.0444C128.437 76.1932 130.017 75.8643 131.548 75.6499C131.666 75.6291 131.772 75.5633 131.842 75.4665C131.911 75.3695 131.941 75.2491 131.924 75.1307C131.906 75.0124 131.844 74.9055 131.75 74.8325C131.654 74.7596 131.535 74.7265 131.416 74.7402L131.419 74.7436Z" fill="#292B37"/>
<path d="M116.356 103.915C116.793 104.202 117.106 104.641 117.235 105.148C117.387 105.68 117.478 106.227 117.505 106.779C117.597 107.965 117.729 109.28 118.622 110.168C119.17 110.658 119.871 110.943 120.606 110.974C121.399 111.051 122.205 111.059 123.005 111.083C124.61 111.091 126.213 111.215 127.801 111.453C129.395 111.691 130.914 112.294 132.237 113.215C132.715 113.566 133.274 112.837 132.798 112.486C130.272 110.622 127.064 110.304 124.028 110.198C123.207 110.169 122.387 110.152 121.567 110.114C120.9 110.082 120.11 110.103 119.528 109.723C119.102 109.42 118.801 108.972 118.682 108.464C118.536 107.912 118.45 107.348 118.426 106.778C118.332 105.487 118.112 103.958 116.92 103.19C116.823 103.123 116.704 103.095 116.588 103.112C116.472 103.128 116.366 103.187 116.29 103.277C116.217 103.373 116.183 103.495 116.199 103.616C116.215 103.736 116.278 103.847 116.374 103.921L116.356 103.915Z" fill="#292B37"/>
<path d="M116.749 119.185C117.255 120.216 117.721 121.282 118.29 122.28C118.826 123.219 119.522 123.999 120.565 124.375C121.608 124.752 122.755 124.791 123.85 124.932C124.949 125.066 126.037 125.265 127.112 125.527C128.3 125.814 129.439 126.27 130.497 126.88C130.596 126.951 130.717 126.982 130.837 126.965C130.957 126.949 131.066 126.888 131.142 126.795C131.216 126.699 131.249 126.576 131.233 126.456C131.217 126.335 131.153 126.225 131.056 126.151C129.119 125.004 126.945 124.461 124.72 124.13C123.671 123.977 122.585 123.92 121.558 123.707C121.078 123.623 120.621 123.445 120.212 123.182C119.831 122.9 119.51 122.543 119.269 122.136C118.978 121.651 118.716 121.151 118.485 120.637L117.595 118.825C117.544 118.718 117.454 118.633 117.343 118.591C117.232 118.548 117.109 118.551 116.998 118.597C116.889 118.643 116.802 118.731 116.755 118.841C116.709 118.95 116.707 119.074 116.749 119.185Z" fill="#292B37"/>
<path d="M114.467 84.9291C114.25 86.3523 114.362 87.806 114.793 89.1795C115.224 90.5531 115.961 91.8104 116.951 92.8561C117.504 93.4414 118.135 93.9492 118.824 94.3655C118.922 94.4318 119.04 94.4595 119.156 94.4433C119.272 94.4272 119.378 94.3683 119.454 94.2781C119.522 94.1822 119.551 94.0638 119.536 93.947C119.52 93.8302 119.46 93.7238 119.369 93.6495C118.248 92.9622 117.299 92.0267 116.596 90.9148C115.895 89.8029 115.457 88.5444 115.318 87.2366C115.236 86.5066 115.257 85.7686 115.382 85.0447C115.396 84.9236 115.364 84.8015 115.288 84.7052C115.214 84.6088 115.104 84.5461 114.983 84.5308C114.862 84.5156 114.74 84.549 114.643 84.6238C114.547 84.6985 114.484 84.8085 114.47 84.9295L114.467 84.9291Z" fill="#292B37"/>
<path d="M139.957 92.7971C139.486 92.1084 138.391 92.0692 137.655 92.2884C137.32 92.3872 137.008 92.5535 136.739 92.7769C136.47 93.0001 136.249 93.276 136.09 93.5875C136.032 93.6827 136 93.7925 136 93.9044C136 94.0164 136.032 94.1261 136.09 94.2214C136.146 94.2838 136.217 94.3299 136.298 94.3547C136.377 94.3795 136.462 94.3822 136.544 94.3622C136.706 94.3195 136.86 94.2564 137.006 94.1745C137.73 93.7964 138.537 93.6054 139.353 93.6188C139.464 93.6388 139.576 93.6351 139.684 93.6081C139.792 93.5811 139.892 93.5314 139.98 93.4623C140.031 93.3832 140.059 93.2907 140.059 93.1962C140.059 93.1017 140.031 93.0092 139.98 92.9301C139.976 92.8851 139.968 92.8407 139.957 92.7971Z" fill="black"/>
<path d="M151.032 91.1692C150.562 90.4804 149.466 90.4413 148.731 90.6604C148.397 90.763 148.086 90.9306 147.818 91.1536C147.55 91.3765 147.328 91.6505 147.165 91.9596C147.108 92.0569 147.078 92.1676 147.078 92.2805C147.078 92.3933 147.108 92.504 147.165 92.6013C147.225 92.6611 147.298 92.7046 147.379 92.7279C147.46 92.7512 147.546 92.7534 147.627 92.7343C147.787 92.6949 147.941 92.6316 148.081 92.5465C148.807 92.174 149.613 91.9833 150.429 91.9909C150.539 92.0108 150.651 92.0072 150.759 91.9802C150.867 91.9532 150.967 91.9035 151.055 91.8344C151.105 91.7562 151.132 91.6652 151.132 91.5722C151.132 91.4792 151.105 91.3882 151.055 91.31C151.052 91.2624 151.044 91.2153 151.032 91.1692Z" fill="black"/>
<path d="M126.41 102.416V102.383C127.028 102.977 127.42 103.769 127.514 104.624C127.617 105.557 127.358 106.494 126.792 107.242C126.467 107.644 126.041 107.952 125.558 108.135C125.074 108.319 124.55 108.371 124.039 108.285L124.038 108.284C123.408 108.19 122.834 107.873 122.418 107.392C122.001 106.912 121.771 106.297 121.768 105.66V105.653C121.717 104.989 121.837 104.323 122.117 103.719C122.393 103.115 122.797 102.577 123.301 102.145C123.415 102.05 123.536 101.962 123.663 101.885C123.746 101.834 123.794 101.759 123.808 101.678C123.822 101.599 123.803 101.521 123.767 101.457C123.73 101.394 123.67 101.338 123.594 101.312C123.515 101.286 123.426 101.295 123.344 101.346L123.342 101.348C122.719 101.761 122.197 102.309 121.814 102.952C121.432 103.595 121.201 104.316 121.138 105.061C121.061 105.902 121.251 106.746 121.68 107.473L121.683 107.478C122.077 108.068 122.651 108.514 123.318 108.754C123.926 108.975 124.584 109.025 125.219 108.899C125.856 108.773 126.444 108.474 126.921 108.036L126.923 108.035C127.318 107.654 127.632 107.198 127.845 106.692C128.059 106.187 128.166 105.643 128.163 105.096C128.182 103.973 127.759 102.887 126.985 102.074L126.984 102.072C126.884 101.971 126.78 101.876 126.669 101.787C126.642 101.76 126.608 101.738 126.572 101.723C126.533 101.707 126.493 101.699 126.451 101.699C126.41 101.7 126.369 101.708 126.331 101.724C126.293 101.74 126.259 101.764 126.229 101.793C126.2 101.823 126.177 101.857 126.161 101.895C126.145 101.934 126.137 101.974 126.137 102.016C126.138 102.057 126.146 102.097 126.162 102.136C126.178 102.174 126.201 102.209 126.231 102.237L126.41 102.416Z" fill="white"/>
<path d="M126.229 101.793C126.259 101.764 126.293 101.74 126.331 101.724C126.369 101.708 126.41 101.7 126.451 101.699C126.493 101.699 126.533 101.707 126.572 101.723C126.608 101.738 126.642 101.76 126.669 101.787C126.78 101.876 126.884 101.971 126.984 102.072L126.985 102.074C127.759 102.887 128.182 103.973 128.163 105.096C128.166 105.643 128.059 106.187 127.845 106.692C127.632 107.198 127.318 107.654 126.923 108.035L126.921 108.036C126.444 108.474 125.856 108.773 125.219 108.899C124.584 109.025 123.926 108.975 123.318 108.754C122.651 108.514 122.077 108.068 121.683 107.478L121.68 107.473C121.251 106.746 121.061 105.902 121.138 105.061C121.201 104.316 121.432 103.595 121.814 102.952C122.197 102.309 122.719 101.761 123.342 101.348L123.344 101.346C123.426 101.295 123.515 101.286 123.594 101.312C123.67 101.338 123.73 101.394 123.767 101.457C123.803 101.521 123.822 101.599 123.808 101.678C123.794 101.759 123.746 101.834 123.663 101.885C123.536 101.962 123.415 102.05 123.301 102.145C122.797 102.577 122.393 103.115 122.117 103.719C121.837 104.323 121.717 104.989 121.768 105.653V105.66C121.771 106.297 122.001 106.912 122.418 107.392C122.834 107.873 123.408 108.19 124.038 108.284L124.039 108.285C124.55 108.371 125.074 108.319 125.558 108.135C126.041 107.952 126.467 107.644 126.792 107.242C127.358 106.494 127.617 105.557 127.514 104.624C127.42 103.769 127.028 102.977 126.41 102.383V102.416L126.231 102.237C126.201 102.209 126.178 102.174 126.162 102.136C126.146 102.097 126.138 102.057 126.137 102.016C126.137 101.974 126.145 101.934 126.161 101.895C126.177 101.857 126.2 101.823 126.229 101.793ZM126.229 101.793L126.303 101.866" stroke="white" stroke-width="0.211099"/>
<path d="M157.263 238.961C157.2 238.964 157.137 238.952 157.08 238.924C157.024 238.9 156.974 238.865 156.933 238.823C156.891 238.779 156.858 238.727 156.837 238.672C156.815 238.615 156.804 238.556 156.805 238.495C156.806 238.436 156.82 238.376 156.844 238.32L164.136 221.992C164.186 221.881 164.278 221.795 164.392 221.751C164.506 221.707 164.632 221.711 164.743 221.761C164.854 221.81 164.942 221.902 164.985 222.016C165.028 222.13 165.025 222.256 164.975 222.367L157.698 238.689C157.661 238.772 157.6 238.843 157.522 238.891C157.445 238.94 157.355 238.965 157.263 238.961Z" fill="#66B6FF"/>
<path d="M179.057 200.943H178.955C178.895 200.93 178.84 200.905 178.79 200.869C178.741 200.834 178.699 200.79 178.667 200.738C178.636 200.687 178.615 200.629 178.607 200.569C178.598 200.51 178.601 200.448 178.616 200.39L191.986 144.304C192.024 144.195 192.101 144.104 192.201 144.049C192.302 143.993 192.42 143.977 192.532 144.003C192.644 144.03 192.742 144.098 192.807 144.193C192.873 144.288 192.899 144.403 192.884 144.517L179.507 200.56C179.486 200.665 179.431 200.76 179.349 200.829C179.267 200.899 179.164 200.939 179.057 200.943Z" fill="#66B6FF"/>
<path d="M147.409 215.924C153.254 215.924 157.992 211.186 157.992 205.343C157.992 199.499 153.254 194.761 147.409 194.761C141.566 194.761 136.828 199.499 136.828 205.343C136.828 211.186 141.566 215.924 147.409 215.924Z" fill="white"/>
<path d="M208.059 205.1C205.764 204.838 203.619 203.832 201.949 202.236C200.28 200.639 199.179 198.54 198.815 196.259C198.452 193.978 198.845 191.641 199.935 189.604C201.024 187.568 202.751 185.944 204.851 184.981C205.53 191.744 206.601 198.462 208.059 205.1Z" fill="white"/>
<path d="M80.1482 222.551C78.1158 226.613 75.5074 230.359 72.4037 233.674C72.0531 234.046 72.6162 234.609 72.9667 234.237C76.1161 230.872 78.767 227.073 80.8387 222.955C81.0618 222.499 80.3713 222.095 80.1482 222.551Z" fill="#006DFF"/>
<path d="M90.6324 230.088C88.4591 235.537 85.9762 240.858 83.1961 246.023C82.9517 246.48 83.6423 246.884 83.8866 246.427C86.7057 241.201 89.2274 235.821 91.4398 230.311C91.631 229.833 90.8555 229.632 90.6644 230.099L90.6324 230.088Z" fill="#006DFF"/>
<path d="M100.825 135.636C100.948 134.532 99.7218 131.634 98.25 131.929" stroke="#006DFF" stroke-width="0.735847" stroke-linecap="round"/>
<path d="M112.735 129.682C112.859 128.578 111.632 125.68 110.16 125.975" stroke="#006DFF" stroke-width="0.735847" stroke-linecap="round"/>
<path d="M178.319 200.61C179.927 206.985 181.146 213.453 181.97 219.976C182.036 220.485 182.819 220.351 182.752 219.842C181.934 213.318 180.714 206.85 179.102 200.476C178.981 199.983 178.188 200.116 178.319 200.61Z" fill="#006DFF"/>
<path d="M172.198 219.3C173.455 223.926 174.245 228.666 174.556 233.45C174.556 233.96 175.385 233.971 175.353 233.45C175.036 228.595 174.235 223.784 172.963 219.088C172.935 218.986 172.867 218.9 172.776 218.848C172.685 218.797 172.575 218.783 172.474 218.812C172.373 218.839 172.287 218.907 172.235 218.998C172.183 219.091 172.17 219.199 172.198 219.3Z" fill="#006DFF"/>
<path d="M167.028 132.362C167.152 131.259 165.925 128.361 164.453 128.656" stroke="#006DFF" stroke-width="0.735847" stroke-linecap="round"/>
<path d="M159.872 175.359L161.246 180.604L158.733 197.657L156.293 195.656L158.066 179.484L159.872 175.359Z" fill="#1B1D29"/>
<path d="M127.039 173.748C126.124 172.46 125.21 171.173 124.297 169.884C123.944 171.502 123.811 173.266 123.457 174.881L127.039 191.323L129.403 188.957L127.039 173.748Z" fill="#1B1D29"/>
<path d="M154.317 182.452L157.981 183.163C158.529 183.269 158.887 183.799 158.781 184.346L158.573 185.422C158.467 185.969 157.937 186.327 157.389 186.221L153.725 185.511C153.177 185.405 152.819 184.875 152.925 184.327L153.133 183.251C153.239 182.703 153.769 182.346 154.317 182.452Z" fill="#1B1D29"/>
<path d="M148.167 182.204L150.564 182.677C150.922 182.749 151.155 183.096 151.085 183.455L150.946 184.157C150.875 184.516 150.527 184.75 150.169 184.678L147.772 184.206C147.414 184.134 147.18 183.786 147.251 183.428L147.39 182.726C147.461 182.367 147.809 182.133 148.167 182.204Z" fill="#1B1D29"/>
<path d="M127.836 183.492C127.937 182.981 128.138 182.493 128.427 182.06C128.716 181.626 129.088 181.253 129.521 180.963C129.954 180.672 130.44 180.471 130.951 180.369C131.463 180.265 131.989 180.265 132.501 180.367L157.134 185.232C157.646 185.333 158.132 185.534 158.566 185.823C158.999 186.112 159.372 186.484 159.663 186.917C159.953 187.35 160.155 187.837 160.258 188.348C160.36 188.859 160.361 189.386 160.26 189.897L159.762 192.414L127.332 186.009L127.836 183.492Z" fill="#333647"/>
<path d="M159.765 192.414L157.904 201.841C157.7 202.874 157.093 203.784 156.219 204.371C155.344 204.957 154.272 205.172 153.239 204.968L128.6 200.101C128.088 200 127.602 199.8 127.168 199.51C126.733 199.221 126.361 198.849 126.07 198.416C125.78 197.982 125.578 197.496 125.476 196.985C125.374 196.474 125.373 195.948 125.474 195.436L127.336 186.009L159.765 192.414Z" fill="#1B1D29"/>
<path d="M130.965 181.807L137.504 183.099C137.83 183.163 138.042 183.48 137.978 183.805L137.536 186.04C137.472 186.367 137.155 186.578 136.83 186.515L130.29 185.222C129.963 185.159 129.752 184.841 129.816 184.516L130.257 182.281C130.321 181.955 130.638 181.743 130.965 181.807Z" fill="white"/>
<path d="M156.339 193.202L157.194 193.371C157.552 193.441 157.785 193.789 157.714 194.147L157.031 197.603C156.961 197.96 156.614 198.193 156.256 198.122L155.4 197.953C155.043 197.883 154.809 197.535 154.88 197.177L155.563 193.722C155.633 193.364 155.98 193.131 156.339 193.202Z" fill="#FFDA4D"/>
<path d="M138.398 197.734C135.654 194.99 135.654 190.541 138.398 187.797C141.142 185.053 145.591 185.053 148.335 187.797C151.079 190.541 151.079 194.99 148.335 197.734C145.591 200.478 141.142 200.478 138.398 197.734Z" fill="white"/>
<path d="M138.634 194.032C137.94 191.421 139.494 188.741 142.104 188.047C144.715 187.352 147.395 188.905 148.089 191.516C148.784 194.126 147.231 196.806 144.62 197.5C142.009 198.195 139.329 196.642 138.634 194.032Z" fill="#292B37"/>
<path d="M135.84 186.282C135.908 186.281 135.974 186.257 136.026 186.215C136.078 186.172 136.114 186.111 136.127 186.045L136.679 183.254C136.688 183.217 136.689 183.177 136.682 183.138C136.675 183.099 136.66 183.063 136.639 183.03C136.617 182.997 136.59 182.968 136.558 182.947C136.525 182.925 136.488 182.91 136.449 182.902C136.412 182.894 136.372 182.895 136.333 182.903C136.295 182.911 136.259 182.926 136.226 182.949C136.194 182.971 136.167 182.999 136.146 183.033C136.125 183.066 136.111 183.102 136.104 183.141L135.552 185.932C135.537 186.008 135.553 186.088 135.597 186.152C135.641 186.217 135.707 186.261 135.784 186.277C135.802 186.28 135.821 186.282 135.84 186.282Z" fill="#B1B3B8"/>
<path d="M133.618 185.843C133.685 185.843 133.752 185.819 133.804 185.777C133.856 185.733 133.892 185.673 133.905 185.607L134.455 182.816C134.463 182.778 134.463 182.74 134.456 182.702C134.448 182.664 134.433 182.629 134.412 182.596C134.39 182.564 134.363 182.537 134.331 182.515C134.299 182.495 134.263 182.48 134.225 182.473C134.188 182.465 134.149 182.465 134.11 182.473C134.073 182.48 134.037 182.495 134.005 182.516C133.973 182.537 133.945 182.565 133.924 182.597C133.903 182.629 133.888 182.665 133.88 182.703L133.33 185.493C133.322 185.53 133.322 185.57 133.33 185.608C133.337 185.646 133.352 185.681 133.374 185.713C133.395 185.745 133.422 185.773 133.454 185.794C133.486 185.815 133.522 185.83 133.559 185.838L133.618 185.843Z" fill="#B1B3B8"/>
<path d="M131.399 185.405C131.467 185.405 131.533 185.381 131.585 185.337C131.638 185.293 131.674 185.234 131.688 185.166L132.237 182.376C132.25 182.301 132.232 182.224 132.19 182.161C132.146 182.099 132.08 182.055 132.005 182.04C131.931 182.026 131.853 182.041 131.789 182.082C131.725 182.124 131.68 182.188 131.663 182.263L131.111 185.055C131.096 185.131 131.112 185.21 131.156 185.275C131.199 185.339 131.266 185.383 131.342 185.398C131.361 185.402 131.38 185.404 131.399 185.405Z" fill="#B1B3B8"/>
<path d="M93.2945 121.938C93.4874 122.7 93.2944 123.577 93.6628 124.306C93.85 124.622 94.1284 124.875 94.4617 125.032C94.7948 125.188 95.1674 125.241 95.5309 125.182C95.9023 125.204 96.2738 125.143 96.6194 125.005C96.9649 124.867 97.276 124.655 97.5306 124.384C98.0657 123.639 97.6622 122.727 97.8026 121.902C97.8727 121.481 97.2323 121.306 97.1621 121.726C97.1183 122.203 97.1183 122.681 97.1621 123.156C97.1621 124.183 96.443 124.48 95.5309 124.525C93.7768 124.612 94.2153 122.867 93.9347 121.718C93.9055 121.64 93.8483 121.576 93.7743 121.538C93.7002 121.5 93.6146 121.491 93.5343 121.513C93.4542 121.535 93.3851 121.586 93.3407 121.657C93.2963 121.727 93.2798 121.812 93.2945 121.893V121.938Z" fill="#006DFF"/>
<path d="M38.2066 38.0772C37.639 36.2354 39.7648 34.747 41.3013 35.9102L51.6728 43.7611L62.3119 36.2769C63.888 35.168 65.9605 36.7298 65.3291 38.5506L61.0673 50.8405L71.4729 58.6461C73.0145 59.8025 72.1697 62.2562 70.2429 62.2183L57.2376 61.9629L53.0295 74.2712C52.4061 76.0948 49.8115 76.0496 49.252 74.2053L45.4761 61.7576L32.4698 61.559C30.5428 61.5296 29.7841 59.0479 31.3652 57.946L42.0368 50.5083L38.2066 38.0772Z" fill="#F2F9FF"/>
<path d="M223.474 38.0772C224.042 36.2354 221.916 34.747 220.38 35.9102L210.008 43.7611L199.369 36.2769C197.793 35.168 195.72 36.7298 196.352 38.5506L200.614 50.8405L190.208 58.6461C188.667 59.8025 189.511 62.2562 191.438 62.2183L204.443 61.9629L208.651 74.2712C209.274 76.0948 211.87 76.0496 212.428 74.2053L216.205 61.7576L229.211 61.559C231.139 61.5296 231.897 59.0479 230.316 57.946L219.644 50.5083L223.474 38.0772Z" fill="#F2F9FF"/>
<path d="M129.345 6.89894C129.937 5.06477 132.532 5.06477 133.123 6.89894L137.116 19.2789L150.123 19.2504C152.051 19.2463 152.853 21.7142 151.291 22.8436L140.75 30.4664L144.797 42.8288C145.397 44.6604 143.298 46.1857 141.74 45.0495L131.234 37.3807L120.727 45.0495C119.171 46.1857 117.071 44.6604 117.67 42.8288L121.717 30.4664L111.177 22.8436C109.616 21.7142 110.418 19.2463 112.344 19.2504L125.353 19.2789L129.345 6.89894Z" fill="#F2F9FF"/>
</g>
</svg>
